<svg xmlns="http://www.w3.org/2000/svg" xmlns:xlink="http://www.w3.org/1999/xlink" width="950" height="542.75"><rect width="950" height="542.75" rx="0" ry="0" class="a"/><svg height="542.75" viewBox="0 0 95 54.275" width="950" xmlns="http://www.w3.org/2000/svg" xmlns:xlink="http://www.w3.org/1999/xlink"><style>@keyframes m{0%{transform:translateX(0)}.7%{transform:translateX(-95px)}2.6%{transform:translateX(-190px)}9.6%{transform:translateX(-285px)}10.3%{transform:translateX(-380px)}12.3%{transform:translateX(-475px)}13.1%{transform:translateX(-570px)}15.8%{transform:translateX(-665px)}16.6%{transform:translateX(-760px)}17.9%{transform:translateX(-855px)}18.7%{transform:translateX(-950px)}20%{transform:translateX(-1045px)}22.3%{transform:translateX(-1140px)}22.9%{transform:translateX(-1235px)}23.9%{transform:translateX(-1330px)}24.7%{transform:translateX(-1425px)}26.1%{transform:translateX(-1520px)}26.8%{transform:translateX(-1615px)}27.8%{transform:translateX(-1710px)}28.8%{transform:translateX(-1805px)}30.7%{transform:translateX(-1900px)}34%{transform:translateX(-1995px)}49.6%{transform:translateX(-2090px)}51.3%{transform:translateX(-2185px)}76.5%{transform:translateX(-2280px)}77.1%{transform:translateX(-2375px)}83.2%{transform:translateX(-2470px)}86%{transform:translateX(-2565px)}86.1%{transform:translateX(-2660px)}86.2%{transform:translateX(-2850px)}86.3%{transform:translateX(-2945px)}86.4%{transform:translateX(-3040px)}86.9%{transform:translateX(-3230px)}88.5%{transform:translateX(-3325px)}to{transform:translateX(-3420px)}}.a{fill:#282d35}.c{fill:#b9c0cb}.d{fill:#dbab79}.d,.e{font-weight:700}.e,.f{fill:#66c2cd}.g{fill:#d290e4}.h,.i,.j{fill:#a8cc8c;font-weight:700}.i,.j{fill:#e88388}.j{fill:#71bef2}</style><g font-size="1.67" font-family="Monaco,Consolas,Menlo,'Bitstream Vera Sans Mono','Powerline Symbols',monospace"><defs><symbol id="1"><text y="1.67" class="c">Hello</text><text x="6.012" y="1.67" class="d">pkruczkiewicz</text><text x="19.038" y="1.67" class="c">!</text><text x="21.042" y="1.67" class="c">It</text><text x="24.048" y="1.67" class="c">is</text><text x="27.054" y="1.67" class="e">Fri</text><text x="31.062" y="1.67" class="e">Apr</text><text x="36.072" y="1.67" class="e">5</text><text x="38.076" y="1.67" class="e">12:28:31</text><text x="47.094" y="1.67" class="e">CDT</text><text x="51.102" y="1.67" class="e">2019</text></symbol><symbol id="2"><text y="1.67" class="f">12:28:32</text><text x="9.018" y="1.67" class="g">248924</text><text x="16.032" y="1.67" class="h">[</text><text x="17.034" y="1.67" class="d">pkruczkiewicz</text><text x="30.06" y="1.67" class="i">@</text><text x="31.062" y="1.67" class="d">beauty</text><text x="38.076" y="1.67" class="j">~</text><text x="39.078" y="1.67" class="h">]</text><text x="40.08" y="1.67" class="j">$</text><text x="42.084" y="1.67" class="c">nextflow</text></symbol><symbol id="3"><text y="1.67" class="f">12:28:32</text><text x="9.018" y="1.67" class="g">248924</text><text x="16.032" y="1.67" class="h">[</text><text x="17.034" y="1.67" class="d">pkruczkiewicz</text><text x="30.06" y="1.67" class="i">@</text><text x="31.062" y="1.67" class="d">beauty</text><text x="38.076" y="1.67" class="j">~</text><text x="39.078" y="1.67" class="h">]</text><text x="40.08" y="1.67" class="j">$</text><text x="42.084" y="1.67" class="c">nextflow</text><text x="51.102" y="1.67" class="c">run</text></symbol><symbol id="4"><text y="1.67" class="f">12:28:32</text><text x="9.018" y="1.67" class="g">248924</text><text x="16.032" y="1.67" class="h">[</text><text x="17.034" y="1.67" class="d">pkruczkiewicz</text><text x="30.06" y="1.67" class="i">@</text><text x="31.062" y="1.67" class="d">beauty</text><text x="38.076" y="1.67" class="j">~</text><text x="39.078" y="1.67" class="h">]</text><text x="40.08" y="1.67" class="j">$</text><text x="42.084" y="1.67" class="c">nextflow</text><text x="51.102" y="1.67" class="c">run</text><text x="55.11" y="1.67" class="c">hello</text></symbol><symbol id="5"><text y="1.67" class="c">N</text><text x="2.004" y="1.67" class="c">E</text><text x="4.008" y="1.67" class="c">X</text><text x="6.012" y="1.67" class="c">T</text><text x="8.016" y="1.67" class="c">F</text><text x="10.02" y="1.67" class="c">L</text><text x="12.024" y="1.67" class="c">O</text><text x="14.028" y="1.67" class="c">W</text><text x="17.034" y="1.67" class="c">~</text><text x="20.04" y="1.67" class="c">version</text><text x="28.056" y="1.67" class="c">19.01.0</text></symbol><symbol id="6"><text y="1.67" class="c">Pulling</text><text x="8.016" y="1.67" class="c">nextflow-io/hello</text><text x="26.052" y="1.67" class="c">...</text></symbol><symbol id="7"><text x="1.002" y="1.67" class="c">downloaded</text><text x="12.024" y="1.67" class="c">from</text><text x="17.034" y="1.67" class="c">https://github.com/nextflow-io/hello.git</text></symbol><symbol id="8"><text y="1.67" class="c">Launching</text><text x="10.02" y="1.67" class="c">`nextflow-io/hello`</text><text x="30.06" y="1.67" class="c">[cheeky_meucci]</text><text x="46.092" y="1.67" class="c">-</text><text x="48.096" y="1.67" class="c">revision:</text><text x="58.116" y="1.67" class="c">a9012339ce</text><text x="69.138" y="1.67" class="c">[master]</text></symbol><symbol id="9"><text y="1.67" class="c">[warm</text><text x="6.012" y="1.67" class="c">up]</text><text x="10.02" y="1.67" class="c">executor</text><text x="19.038" y="1.67" class="c">&gt;</text><text x="21.042" y="1.67" class="c">local</text></symbol><symbol id="10"><text y="1.67" class="c">[15/098462]</text><text x="12.024" y="1.67" class="c">Submitted</text><text x="22.044" y="1.67" class="c">process</text><text x="30.06" y="1.67" class="c">&gt;</text><text x="32.064" y="1.67" class="c">sayHello</text><text x="41.082" y="1.67" class="c">(3)</text></symbol><symbol id="11"><text y="1.67" class="c">[cf/ca112f]</text><text x="12.024" y="1.67" class="c">Submitted</text><text x="22.044" y="1.67" class="c">process</text><text x="30.06" y="1.67" class="c">&gt;</text><text x="32.064" y="1.67" class="c">sayHello</text><text x="41.082" y="1.67" class="c">(1)</text></symbol><symbol id="12"><text y="1.67" class="c">[d3/494b5a]</text><text x="12.024" y="1.67" class="c">Submitted</text><text x="22.044" y="1.67" class="c">process</text><text x="30.06" y="1.67" class="c">&gt;</text><text x="32.064" y="1.67" class="c">sayHello</text><text x="41.082" y="1.67" class="c">(2)</text></symbol><symbol id="13"><text y="1.67" class="c">[7c/fbb0e2]</text><text x="12.024" y="1.67" class="c">Submitted</text><text x="22.044" y="1.67" class="c">process</text><text x="30.06" y="1.67" class="c">&gt;</text><text x="32.064" y="1.67" class="c">sayHello</text><text x="41.082" y="1.67" class="c">(4)</text></symbol><symbol id="14"><text y="1.67" class="c">Hello</text><text x="6.012" y="1.67" class="c">world!</text></symbol><symbol id="15"><text y="1.67" class="c">Bonjour</text><text x="8.016" y="1.67" class="c">world!</text></symbol><symbol id="16"><text y="1.67" class="c">Ciao</text><text x="5.01" y="1.67" class="c">world!</text></symbol><symbol id="17"><text y="1.67" class="c">Hola</text><text x="5.01" y="1.67" class="c">world!</text></symbol><symbol id="a"><path fill="transparent" d="M0 0h95v25H0z"/></symbol><symbol id="b"><path fill="#6f7683" d="M0 0h1.102v2.171H0z"/></symbol></defs><path class="a" d="M0 0h95v54.275H0z"/><g style="animation-duration:13.746678s;animation-iteration-count:infinite;animation-name:m;animation-timing-function:steps(1,end)"><svg width="3515"><svg><use xlink:href="#a"/><use xlink:href="#b" x="-.004"/></svg><svg x="95"><use xlink:href="#a"/><use xlink:href="#b" x="-.004" y="2.146"/><use xlink:href="#1"/></svg><svg x="190"><use xlink:href="#a"/><use xlink:href="#b" x="41.996" y="2.146"/><use xlink:href="#1"/><text y="3.841" class="f">12:28:32</text><text x="9.018" y="3.841" class="g">248924</text><text x="16.032" y="3.841" class="h">[</text><text x="17.034" y="3.841" class="d">pkruczkiewicz</text><text x="30.06" y="3.841" class="i">@</text><text x="31.062" y="3.841" class="d">beauty</text><text x="38.076" y="3.841" class="j">~</text><text x="39.078" y="3.841" class="h">]</text><text x="40.08" y="3.841" class="j">$</text></svg><svg x="285"><use xlink:href="#a"/><use xlink:href="#b" x="42.996" y="2.146"/><use xlink:href="#1"/><text y="3.841" class="f">12:28:32</text><text x="9.018" y="3.841" class="g">248924</text><text x="16.032" y="3.841" class="h">[</text><text x="17.034" y="3.841" class="d">pkruczkiewicz</text><text x="30.06" y="3.841" class="i">@</text><text x="31.062" y="3.841" class="d">beauty</text><text x="38.076" y="3.841" class="j">~</text><text x="39.078" y="3.841" class="h">]</text><text x="40.08" y="3.841" class="j">$</text><text x="42.084" y="3.841" class="c">n</text></svg><svg x="380"><use xlink:href="#a"/><use xlink:href="#b" x="43.996" y="2.146"/><use xlink:href="#1"/><text y="3.841" class="f">12:28:32</text><text x="9.018" y="3.841" class="g">248924</text><text x="16.032" y="3.841" class="h">[</text><text x="17.034" y="3.841" class="d">pkruczkiewicz</text><text x="30.06" y="3.841" class="i">@</text><text x="31.062" y="3.841" class="d">beauty</text><text x="38.076" y="3.841" class="j">~</text><text x="39.078" y="3.841" class="h">]</text><text x="40.08" y="3.841" class="j">$</text><text x="42.084" y="3.841" class="c">ne</text></svg><svg x="475"><use xlink:href="#a"/><use xlink:href="#b" x="44.996" y="2.146"/><use xlink:href="#1"/><text y="3.841" class="f">12:28:32</text><text x="9.018" y="3.841" class="g">248924</text><text x="16.032" y="3.841" class="h">[</text><text x="17.034" y="3.841" class="d">pkruczkiewicz</text><text x="30.06" y="3.841" class="i">@</text><text x="31.062" y="3.841" class="d">beauty</text><text x="38.076" y="3.841" class="j">~</text><text x="39.078" y="3.841" class="h">]</text><text x="40.08" y="3.841" class="j">$</text><text x="42.084" y="3.841" class="c">nex</text></svg><svg x="570"><use xlink:href="#a"/><use xlink:href="#b" x="45.996" y="2.146"/><use xlink:href="#1"/><text y="3.841" class="f">12:28:32</text><text x="9.018" y="3.841" class="g">248924</text><text x="16.032" y="3.841" class="h">[</text><text x="17.034" y="3.841" class="d">pkruczkiewicz</text><text x="30.06" y="3.841" class="i">@</text><text x="31.062" y="3.841" class="d">beauty</text><text x="38.076" y="3.841" class="j">~</text><text x="39.078" y="3.841" class="h">]</text><text x="40.08" y="3.841" class="j">$</text><text x="42.084" y="3.841" class="c">next</text></svg><svg x="665"><use xlink:href="#a"/><use xlink:href="#b" x="46.996" y="2.146"/><use xlink:href="#1"/><text y="3.841" class="f">12:28:32</text><text x="9.018" y="3.841" class="g">248924</text><text x="16.032" y="3.841" class="h">[</text><text x="17.034" y="3.841" class="d">pkruczkiewicz</text><text x="30.06" y="3.841" class="i">@</text><text x="31.062" y="3.841" class="d">beauty</text><text x="38.076" y="3.841" class="j">~</text><text x="39.078" y="3.841" class="h">]</text><text x="40.08" y="3.841" class="j">$</text><text x="42.084" y="3.841" class="c">nextf</text></svg><svg x="760"><use xlink:href="#a"/><use xlink:href="#b" x="47.996" y="2.146"/><use xlink:href="#1"/><text y="3.841" class="f">12:28:32</text><text x="9.018" y="3.841" class="g">248924</text><text x="16.032" y="3.841" class="h">[</text><text x="17.034" y="3.841" class="d">pkruczkiewicz</text><text x="30.06" y="3.841" class="i">@</text><text x="31.062" y="3.841" class="d">beauty</text><text x="38.076" y="3.841" class="j">~</text><text x="39.078" y="3.841" class="h">]</text><text x="40.08" y="3.841" class="j">$</text><text x="42.084" y="3.841" class="c">nextfl</text></svg><svg x="855"><use xlink:href="#a"/><use xlink:href="#b" x="48.996" y="2.146"/><use xlink:href="#1"/><text y="3.841" class="f">12:28:32</text><text x="9.018" y="3.841" class="g">248924</text><text x="16.032" y="3.841" class="h">[</text><text x="17.034" y="3.841" class="d">pkruczkiewicz</text><text x="30.06" y="3.841" class="i">@</text><text x="31.062" y="3.841" class="d">beauty</text><text x="38.076" y="3.841" class="j">~</text><text x="39.078" y="3.841" class="h">]</text><text x="40.08" y="3.841" class="j">$</text><text x="42.084" y="3.841" class="c">nextflo</text></svg><svg x="950"><use xlink:href="#a"/><use xlink:href="#b" x="49.996" y="2.146"/><use xlink:href="#1"/><use xlink:href="#2" y="2.171"/></svg><svg x="1045"><use xlink:href="#a"/><use xlink:href="#b" x="50.996" y="2.146"/><use xlink:href="#1"/><use xlink:href="#2" y="2.171"/></svg><svg x="1140"><use xlink:href="#a"/><use xlink:href="#b" x="51.996" y="2.146"/><use xlink:href="#1"/><text y="3.841" class="f">12:28:32</text><text x="9.018" y="3.841" class="g">248924</text><text x="16.032" y="3.841" class="h">[</text><text x="17.034" y="3.841" class="d">pkruczkiewicz</text><text x="30.06" y="3.841" class="i">@</text><text x="31.062" y="3.841" class="d">beauty</text><text x="38.076" y="3.841" class="j">~</text><text x="39.078" y="3.841" class="h">]</text><text x="40.08" y="3.841" class="j">$</text><text x="42.084" y="3.841" class="c">nextflow</text><text x="51.102" y="3.841" class="c">r</text></svg><svg x="1235"><use xlink:href="#a"/><use xlink:href="#b" x="52.996" y="2.146"/><use xlink:href="#1"/><text y="3.841" class="f">12:28:32</text><text x="9.018" y="3.841" class="g">248924</text><text x="16.032" y="3.841" class="h">[</text><text x="17.034" y="3.841" class="d">pkruczkiewicz</text><text x="30.06" y="3.841" class="i">@</text><text x="31.062" y="3.841" class="d">beauty</text><text x="38.076" y="3.841" class="j">~</text><text x="39.078" y="3.841" class="h">]</text><text x="40.08" y="3.841" class="j">$</text><text x="42.084" y="3.841" class="c">nextflow</text><text x="51.102" y="3.841" class="c">ru</text></svg><svg x="1330"><use xlink:href="#a"/><use xlink:href="#b" x="53.996" y="2.146"/><use xlink:href="#1"/><use xlink:href="#3" y="2.171"/></svg><svg x="1425"><use xlink:href="#a"/><use xlink:href="#b" x="54.996" y="2.146"/><use xlink:href="#1"/><use xlink:href="#3" y="2.171"/></svg><svg x="1520"><use xlink:href="#a"/><use xlink:href="#b" x="55.996" y="2.146"/><use xlink:href="#1"/><text y="3.841" class="f">12:28:32</text><text x="9.018" y="3.841" class="g">248924</text><text x="16.032" y="3.841" class="h">[</text><text x="17.034" y="3.841" class="d">pkruczkiewicz</text><text x="30.06" y="3.841" class="i">@</text><text x="31.062" y="3.841" class="d">beauty</text><text x="38.076" y="3.841" class="j">~</text><text x="39.078" y="3.841" class="h">]</text><text x="40.08" y="3.841" class="j">$</text><text x="42.084" y="3.841" class="c">nextflow</text><text x="51.102" y="3.841" class="c">run</text><text x="55.11" y="3.841" class="c">h</text></svg><svg x="1615"><use xlink:href="#a"/><use xlink:href="#b" x="56.996" y="2.146"/><use xlink:href="#1"/><text y="3.841" class="f">12:28:32</text><text x="9.018" y="3.841" class="g">248924</text><text x="16.032" y="3.841" class="h">[</text><text x="17.034" y="3.841" class="d">pkruczkiewicz</text><text x="30.06" y="3.841" class="i">@</text><text x="31.062" y="3.841" class="d">beauty</text><text x="38.076" y="3.841" class="j">~</text><text x="39.078" y="3.841" class="h">]</text><text x="40.08" y="3.841" class="j">$</text><text x="42.084" y="3.841" class="c">nextflow</text><text x="51.102" y="3.841" class="c">run</text><text x="55.11" y="3.841" class="c">he</text></svg><svg x="1710"><use xlink:href="#a"/><use xlink:href="#b" x="57.996" y="2.146"/><use xlink:href="#1"/><text y="3.841" class="f">12:28:32</text><text x="9.018" y="3.841" class="g">248924</text><text x="16.032" y="3.841" class="h">[</text><text x="17.034" y="3.841" class="d">pkruczkiewicz</text><text x="30.06" y="3.841" class="i">@</text><text x="31.062" y="3.841" class="d">beauty</text><text x="38.076" y="3.841" class="j">~</text><text x="39.078" y="3.841" class="h">]</text><text x="40.08" y="3.841" class="j">$</text><text x="42.084" y="3.841" class="c">nextflow</text><text x="51.102" y="3.841" class="c">run</text><text x="55.11" y="3.841" class="c">hel</text></svg><svg x="1805"><use xlink:href="#a"/><use xlink:href="#b" x="58.996" y="2.146"/><use xlink:href="#1"/><text y="3.841" class="f">12:28:32</text><text x="9.018" y="3.841" class="g">248924</text><text x="16.032" y="3.841" class="h">[</text><text x="17.034" y="3.841" class="d">pkruczkiewicz</text><text x="30.06" y="3.841" class="i">@</text><text x="31.062" y="3.841" class="d">beauty</text><text x="38.076" y="3.841" class="j">~</text><text x="39.078" y="3.841" class="h">]</text><text x="40.08" y="3.841" class="j">$</text><text x="42.084" y="3.841" class="c">nextflow</text><text x="51.102" y="3.841" class="c">run</text><text x="55.11" y="3.841" class="c">hell</text></svg><svg x="1900"><use xlink:href="#a"/><use xlink:href="#b" x="59.996" y="2.146"/><use xlink:href="#1"/><use xlink:href="#4" y="2.171"/></svg><svg x="1995"><use xlink:href="#a"/><use xlink:href="#b" x="-.004" y="4.317"/><use xlink:href="#1"/><use xlink:href="#4" y="2.171"/></svg><svg x="2090"><use xlink:href="#a"/><use xlink:href="#b" x="-.004" y="6.488"/><use xlink:href="#1"/><use xlink:href="#4" y="2.171"/><use xlink:href="#5" y="4.342"/></svg><svg x="2185"><use xlink:href="#a"/><use xlink:href="#b" x="-.004" y="8.659"/><use xlink:href="#1"/><use xlink:href="#4" y="2.171"/><use xlink:href="#5" y="4.342"/><use xlink:href="#6" y="6.513"/></svg><svg x="2280"><use xlink:href="#a"/><use xlink:href="#b" x="-.004" y="10.83"/><use xlink:href="#1"/><use xlink:href="#4" y="2.171"/><use xlink:href="#5" y="4.342"/><use xlink:href="#6" y="6.513"/><use xlink:href="#7" y="8.684"/></svg><svg x="2375"><use xlink:href="#a"/><use xlink:href="#b" x="-.004" y="13.001"/><use xlink:href="#1"/><use xlink:href="#4" y="2.171"/><use xlink:href="#5" y="4.342"/><use xlink:href="#6" y="6.513"/><use xlink:href="#7" y="8.684"/><use xlink:href="#8" y="10.855"/></svg><svg x="2470"><use xlink:href="#a"/><use xlink:href="#b" x="-.004" y="15.172"/><use xlink:href="#1"/><use xlink:href="#4" y="2.171"/><use xlink:href="#5" y="4.342"/><use xlink:href="#6" y="6.513"/><use xlink:href="#7" y="8.684"/><use xlink:href="#8" y="10.855"/><use xlink:href="#9" y="13.026"/></svg><svg x="2565"><use xlink:href="#a"/><use xlink:href="#b" x="-.004" y="17.343"/><use xlink:href="#1"/><use xlink:href="#4" y="2.171"/><use xlink:href="#5" y="4.342"/><use xlink:href="#6" y="6.513"/><use xlink:href="#7" y="8.684"/><use xlink:href="#8" y="10.855"/><use xlink:href="#9" y="13.026"/><use xlink:href="#10" y="15.197"/></svg><svg x="2660"><use xlink:href="#a"/><use xlink:href="#b" x="-.004" y="19.514"/><use xlink:href="#1"/><use xlink:href="#4" y="2.171"/><use xlink:href="#5" y="4.342"/><use xlink:href="#6" y="6.513"/><use xlink:href="#7" y="8.684"/><use xlink:href="#8" y="10.855"/><use xlink:href="#9" y="13.026"/><use xlink:href="#10" y="15.197"/><use xlink:href="#11" y="17.368"/></svg><svg x="2755"><use xlink:href="#a"/><use xlink:href="#b" x="-.004" y="21.685"/><use xlink:href="#1"/><use xlink:href="#4" y="2.171"/><use xlink:href="#5" y="4.342"/><use xlink:href="#6" y="6.513"/><use xlink:href="#7" y="8.684"/><use xlink:href="#8" y="10.855"/><use xlink:href="#9" y="13.026"/><use xlink:href="#10" y="15.197"/><use xlink:href="#11" y="17.368"/><use xlink:href="#12" y="19.539"/></svg><svg x="2850"><use xlink:href="#a"/><use xlink:href="#b" x="-.004" y="23.856"/><use xlink:href="#1"/><use xlink:href="#4" y="2.171"/><use xlink:href="#5" y="4.342"/><use xlink:href="#6" y="6.513"/><use xlink:href="#7" y="8.684"/><use xlink:href="#8" y="10.855"/><use xlink:href="#9" y="13.026"/><use xlink:href="#10" y="15.197"/><use xlink:href="#11" y="17.368"/><use xlink:href="#12" y="19.539"/><use xlink:href="#13" y="21.71"/></svg><svg x="2945"><use xlink:href="#a"/><use xlink:href="#b" x="-.004" y="26.027"/><use xlink:href="#1"/><use xlink:href="#4" y="2.171"/><use xlink:href="#5" y="4.342"/><use xlink:href="#6" y="6.513"/><use xlink:href="#7" y="8.684"/><use xlink:href="#8" y="10.855"/><use xlink:href="#9" y="13.026"/><use xlink:href="#10" y="15.197"/><use xlink:href="#11" y="17.368"/><use xlink:href="#12" y="19.539"/><use xlink:href="#13" y="21.71"/><use xlink:href="#14" y="23.881"/></svg><svg x="3040"><use xlink:href="#a"/><use xlink:href="#b" x="-.004" y="28.198"/><use xlink:href="#1"/><use xlink:href="#4" y="2.171"/><use xlink:href="#5" y="4.342"/><use xlink:href="#6" y="6.513"/><use xlink:href="#7" y="8.684"/><use xlink:href="#8" y="10.855"/><use xlink:href="#9" y="13.026"/><use xlink:href="#10" y="15.197"/><use xlink:href="#11" y="17.368"/><use xlink:href="#12" y="19.539"/><use xlink:href="#13" y="21.71"/><use xlink:href="#14" y="23.881"/><use xlink:href="#15" y="26.052"/></svg><svg x="3135"><use xlink:href="#a"/><use xlink:href="#b" x="-.004" y="30.369"/><use xlink:href="#1"/><use xlink:href="#4" y="2.171"/><use xlink:href="#5" y="4.342"/><use xlink:href="#6" y="6.513"/><use xlink:href="#7" y="8.684"/><use xlink:href="#8" y="10.855"/><use xlink:href="#9" y="13.026"/><use xlink:href="#10" y="15.197"/><use xlink:href="#11" y="17.368"/><use xlink:href="#12" y="19.539"/><use xlink:href="#13" y="21.71"/><use xlink:href="#14" y="23.881"/><use xlink:href="#15" y="26.052"/><use xlink:href="#16" y="28.223"/></svg><svg x="3230"><use xlink:href="#a"/><use xlink:href="#b" x="-.004" y="32.54"/><use xlink:href="#1"/><use xlink:href="#4" y="2.171"/><use xlink:href="#5" y="4.342"/><use xlink:href="#6" y="6.513"/><use xlink:href="#7" y="8.684"/><use xlink:href="#8" y="10.855"/><use xlink:href="#9" y="13.026"/><use xlink:href="#10" y="15.197"/><use xlink:href="#11" y="17.368"/><use xlink:href="#12" y="19.539"/><use xlink:href="#13" y="21.71"/><use xlink:href="#14" y="23.881"/><use xlink:href="#15" y="26.052"/><use xlink:href="#16" y="28.223"/><use xlink:href="#17" y="30.394"/></svg><svg x="3325"><use xlink:href="#a"/><use xlink:href="#b" x="41.996" y="32.54"/><use xlink:href="#1"/><use xlink:href="#4" y="2.171"/><use xlink:href="#5" y="4.342"/><use xlink:href="#6" y="6.513"/><use xlink:href="#7" y="8.684"/><use xlink:href="#8" y="10.855"/><use xlink:href="#9" y="13.026"/><use xlink:href="#10" y="15.197"/><use xlink:href="#11" y="17.368"/><use xlink:href="#12" y="19.539"/><use xlink:href="#13" y="21.71"/><use xlink:href="#14" y="23.881"/><use xlink:href="#15" y="26.052"/><use xlink:href="#16" y="28.223"/><use xlink:href="#17" y="30.394"/><text y="34.235" class="f">12:28:44</text><text x="9.018" y="34.235" class="g">248897</text><text x="16.032" y="34.235" class="h">[</text><text x="17.034" y="34.235" class="d">pkruczkiewicz</text><text x="30.06" y="34.235" class="i">@</text><text x="31.062" y="34.235" class="d">beauty</text><text x="38.076" y="34.235" class="j">~</text><text x="39.078" y="34.235" class="h">]</text><text x="40.08" y="34.235" class="j">$</text></svg><svg x="3420"><use xlink:href="#a"/><use xlink:href="#b" x="-.004" y="34.711"/><use xlink:href="#1"/><use xlink:href="#4" y="2.171"/><use xlink:href="#5" y="4.342"/><use xlink:href="#6" y="6.513"/><use xlink:href="#7" y="8.684"/><use xlink:href="#8" y="10.855"/><use xlink:href="#9" y="13.026"/><use xlink:href="#10" y="15.197"/><use xlink:href="#11" y="17.368"/><use xlink:href="#12" y="19.539"/><use xlink:href="#13" y="21.71"/><use xlink:href="#14" y="23.881"/><use xlink:href="#15" y="26.052"/><use xlink:href="#16" y="28.223"/><use xlink:href="#17" y="30.394"/><text y="34.235" class="f">12:28:44</text><text x="9.018" y="34.235" class="g">248897</text><text x="16.032" y="34.235" class="h">[</text><text x="17.034" y="34.235" class="d">pkruczkiewicz</text><text x="30.06" y="34.235" class="i">@</text><text x="31.062" y="34.235" class="d">beauty</text><text x="38.076" y="34.235" class="j">~</text><text x="39.078" y="34.235" class="h">]</text><text x="40.08" y="34.235" class="j">$</text><text x="42.084" y="34.235" class="c">exit</text></svg></svg></g></g></svg></svg>