<svg xmlns="http://www.w3.org/2000/svg" xmlns:xlink="http://www.w3.org/1999/xlink" width="950" height="542.75"><rect width="950" height="542.75" rx="0" ry="0" class="a"/><svg height="542.75" viewBox="0 0 95 54.275" width="950" xmlns="http://www.w3.org/2000/svg" xmlns:xlink="http://www.w3.org/1999/xlink"><style>@keyframes l{0%{transform:translateX(0)}5.4%{transform:translateX(-95px)}12.7%{transform:translateX(-190px)}13.5%{transform:translateX(-285px)}16.2%{transform:translateX(-380px)}17.4%{transform:translateX(-475px)}20.7%{transform:translateX(-570px)}21.6%{transform:translateX(-665px)}23.2%{transform:translateX(-760px)}24.1%{transform:translateX(-855px)}25.3%{transform:translateX(-950px)}29.4%{transform:translateX(-1045px)}30%{transform:translateX(-1140px)}31.3%{transform:translateX(-1235px)}32.2%{transform:translateX(-1330px)}33.2%{transform:translateX(-1425px)}34.4%{transform:translateX(-1520px)}35.5%{transform:translateX(-1615px)}36.5%{transform:translateX(-1710px)}38.9%{transform:translateX(-1805px)}41.9%{transform:translateX(-1900px)}42.7%{transform:translateX(-1995px)}46.1%{transform:translateX(-2090px)}58.1%{transform:translateX(-2280px)}69.7%{transform:translateX(-3040px)}69.8%{transform:translateX(-3420px)}71.7%{transform:translateX(-3515px)}to{transform:translateX(-3610px)}}.a{fill:#282d35}.c{fill:#b9c0cb}.i{fill:#b9bfca}</style><g font-size="1.67" font-family="Monaco,Consolas,Menlo,'Bitstream Vera Sans Mono','Powerline Symbols',monospace"><defs><symbol id="1"><text y="1.67" class="c">(</text><text x="1.002" y="1.67" fill="#71bef2">base</text><text x="5.01" y="1.67" class="c">)</text><text x="7.014" y="1.67" fill="#a8cc8c">✔</text><text x="9.018" y="1.67" fill="#dbab79">/tmp/nf-simple</text><text x="24.048" y="1.67" class="c">[</text><text x="25.05" y="1.67" fill="#d290e4">master</text><text x="32.064" y="1.67" class="c">L|</text><text x="34.068" y="1.67" fill="#66c2cd">…4</text><text x="36.072" y="1.67" class="c">]</text></symbol><symbol id="2"><text y="1.67" class="i">13:22</text><text x="6.012" y="1.67" class="c">$</text></symbol><symbol id="3"><text y="1.67" class="i">13:22</text><text x="6.012" y="1.67" class="c">$</text><text x="8.016" y="1.67" class="c">nextflow</text></symbol><symbol id="4"><text y="1.67" class="i">13:22</text><text x="6.012" y="1.67" class="c">$</text><text x="8.016" y="1.67" class="c">nextflow</text><text x="17.034" y="1.67" class="c">run</text></symbol><symbol id="5"><text y="1.67" class="i">13:22</text><text x="6.012" y="1.67" class="c">$</text><text x="8.016" y="1.67" class="c">nextflow</text><text x="17.034" y="1.67" class="c">run</text><text x="21.042" y="1.67" class="c">main.nf</text></symbol><symbol id="6"><text y="1.67" class="c">N</text><text x="2.004" y="1.67" class="c">E</text><text x="4.008" y="1.67" class="c">X</text><text x="6.012" y="1.67" class="c">T</text><text x="8.016" y="1.67" class="c">F</text><text x="10.02" y="1.67" class="c">L</text><text x="12.024" y="1.67" class="c">O</text><text x="14.028" y="1.67" class="c">W</text><text x="17.034" y="1.67" class="c">~</text><text x="20.04" y="1.67" class="c">version</text><text x="28.056" y="1.67" class="c">19.01.0</text></symbol><symbol id="7"><text y="1.67" class="c">Launching</text><text x="10.02" y="1.67" class="c">`main.nf`</text><text x="20.04" y="1.67" class="c">[special_hopper]</text><text x="37.074" y="1.67" class="c">-</text><text x="39.078" y="1.67" class="c">revision:</text><text x="49.098" y="1.67" class="c">d10a1d7242</text></symbol><symbol id="8"><text y="1.67" class="c">[Sample-a4a7,</text><text x="14.028" y="1.67" class="c">[/tmp/nf-simple/reads/Sample-a4a7_1.fastq,</text><text x="57.114" y="1.67" class="c">/tmp/nf-simple/reads/Sample-a4a7_2.fas</text></symbol><symbol id="9"><text y="1.67" class="c">tq]]</text></symbol><symbol id="10"><text y="1.67" class="c">[Sample-e814,</text><text x="14.028" y="1.67" class="c">[/tmp/nf-simple/reads/Sample-e814_1.fastq,</text><text x="57.114" y="1.67" class="c">/tmp/nf-simple/reads/Sample-e814_2.fas</text></symbol><symbol id="11"><text y="1.67" class="c">[Sample-04e4,</text><text x="14.028" y="1.67" class="c">[/tmp/nf-simple/reads/Sample-04e4_1.fastq,</text><text x="57.114" y="1.67" class="c">/tmp/nf-simple/reads/Sample-04e4_2.fas</text></symbol><symbol id="12"><text y="1.67" class="c">[Sample-e90c,</text><text x="14.028" y="1.67" class="c">[/tmp/nf-simple/reads/Sample-e90c_1.fastq,</text><text x="57.114" y="1.67" class="c">/tmp/nf-simple/reads/Sample-e90c_2.fas</text></symbol><symbol id="13"><text y="1.67" class="c">[Sample-80ae,</text><text x="14.028" y="1.67" class="c">[/tmp/nf-simple/reads/Sample-80ae_1.fastq,</text><text x="57.114" y="1.67" class="c">/tmp/nf-simple/reads/Sample-80ae_2.fas</text></symbol><symbol id="14"><text y="1.67" class="c">[Sample-36db,</text><text x="14.028" y="1.67" class="c">[/tmp/nf-simple/reads/Sample-36db_1.fastq,</text><text x="57.114" y="1.67" class="c">/tmp/nf-simple/reads/Sample-36db_2.fas</text></symbol><symbol id="15"><text y="1.67" class="c">[Sample-9f50,</text><text x="14.028" y="1.67" class="c">[/tmp/nf-simple/reads/Sample-9f50_1.fastq,</text><text x="57.114" y="1.67" class="c">/tmp/nf-simple/reads/Sample-9f50_2.fas</text></symbol><symbol id="a"><path fill="transparent" d="M0 0h95v25H0z"/></symbol><symbol id="b"><path fill="#6f7683" d="M0 0h1.102v2.171H0z"/></symbol></defs><path class="a" d="M0 0h95v54.275H0z"/><g style="animation-duration:10.871086s;animation-iteration-count:infinite;animation-name:l;animation-timing-function:steps(1,end)"><svg width="3705"><svg><use xlink:href="#a"/><use xlink:href="#b" x="-.004"/></svg><svg x="95"><use xlink:href="#a"/><use xlink:href="#b" x="7.996" y="2.146"/><use xlink:href="#1"/><use xlink:href="#2" y="2.171"/></svg><svg x="190"><use xlink:href="#a"/><use xlink:href="#b" x="8.996" y="2.146"/><use xlink:href="#1"/><text y="3.841" class="i">13:22</text><text x="6.012" y="3.841" class="c">$</text><text x="8.016" y="3.841" class="c">n</text></svg><svg x="285"><use xlink:href="#a"/><use xlink:href="#b" x="9.996" y="2.146"/><use xlink:href="#1"/><text y="3.841" class="i">13:22</text><text x="6.012" y="3.841" class="c">$</text><text x="8.016" y="3.841" class="c">ne</text></svg><svg x="380"><use xlink:href="#a"/><use xlink:href="#b" x="10.996" y="2.146"/><use xlink:href="#1"/><text y="3.841" class="i">13:22</text><text x="6.012" y="3.841" class="c">$</text><text x="8.016" y="3.841" class="c">nex</text></svg><svg x="475"><use xlink:href="#a"/><use xlink:href="#b" x="11.996" y="2.146"/><use xlink:href="#1"/><text y="3.841" class="i">13:22</text><text x="6.012" y="3.841" class="c">$</text><text x="8.016" y="3.841" class="c">next</text></svg><svg x="570"><use xlink:href="#a"/><use xlink:href="#b" x="12.996" y="2.146"/><use xlink:href="#1"/><text y="3.841" class="i">13:22</text><text x="6.012" y="3.841" class="c">$</text><text x="8.016" y="3.841" class="c">nextf</text></svg><svg x="665"><use xlink:href="#a"/><use xlink:href="#b" x="13.996" y="2.146"/><use xlink:href="#1"/><text y="3.841" class="i">13:22</text><text x="6.012" y="3.841" class="c">$</text><text x="8.016" y="3.841" class="c">nextfl</text></svg><svg x="760"><use xlink:href="#a"/><use xlink:href="#b" x="14.996" y="2.146"/><use xlink:href="#1"/><text y="3.841" class="i">13:22</text><text x="6.012" y="3.841" class="c">$</text><text x="8.016" y="3.841" class="c">nextflo</text></svg><svg x="855"><use xlink:href="#a"/><use xlink:href="#b" x="15.996" y="2.146"/><use xlink:href="#1"/><use xlink:href="#3" y="2.171"/></svg><svg x="950"><use xlink:href="#a"/><use xlink:href="#b" x="16.996" y="2.146"/><use xlink:href="#1"/><use xlink:href="#3" y="2.171"/></svg><svg x="1045"><use xlink:href="#a"/><use xlink:href="#b" x="17.996" y="2.146"/><use xlink:href="#1"/><text y="3.841" class="i">13:22</text><text x="6.012" y="3.841" class="c">$</text><text x="8.016" y="3.841" class="c">nextflow</text><text x="17.034" y="3.841" class="c">r</text></svg><svg x="1140"><use xlink:href="#a"/><use xlink:href="#b" x="18.996" y="2.146"/><use xlink:href="#1"/><text y="3.841" class="i">13:22</text><text x="6.012" y="3.841" class="c">$</text><text x="8.016" y="3.841" class="c">nextflow</text><text x="17.034" y="3.841" class="c">ru</text></svg><svg x="1235"><use xlink:href="#a"/><use xlink:href="#b" x="19.996" y="2.146"/><use xlink:href="#1"/><use xlink:href="#4" y="2.171"/></svg><svg x="1330"><use xlink:href="#a"/><use xlink:href="#b" x="20.996" y="2.146"/><use xlink:href="#1"/><use xlink:href="#4" y="2.171"/></svg><svg x="1425"><use xlink:href="#a"/><use xlink:href="#b" x="21.996" y="2.146"/><use xlink:href="#1"/><text y="3.841" class="i">13:22</text><text x="6.012" y="3.841" class="c">$</text><text x="8.016" y="3.841" class="c">nextflow</text><text x="17.034" y="3.841" class="c">run</text><text x="21.042" y="3.841" class="c">m</text></svg><svg x="1520"><use xlink:href="#a"/><use xlink:href="#b" x="22.996" y="2.146"/><use xlink:href="#1"/><text y="3.841" class="i">13:22</text><text x="6.012" y="3.841" class="c">$</text><text x="8.016" y="3.841" class="c">nextflow</text><text x="17.034" y="3.841" class="c">run</text><text x="21.042" y="3.841" class="c">ma</text></svg><svg x="1615"><use xlink:href="#a"/><use xlink:href="#b" x="23.996" y="2.146"/><use xlink:href="#1"/><text y="3.841" class="i">13:22</text><text x="6.012" y="3.841" class="c">$</text><text x="8.016" y="3.841" class="c">nextflow</text><text x="17.034" y="3.841" class="c">run</text><text x="21.042" y="3.841" class="c">mai</text></svg><svg x="1710"><use xlink:href="#a"/><use xlink:href="#b" x="24.996" y="2.146"/><use xlink:href="#1"/><text y="3.841" class="i">13:22</text><text x="6.012" y="3.841" class="c">$</text><text x="8.016" y="3.841" class="c">nextflow</text><text x="17.034" y="3.841" class="c">run</text><text x="21.042" y="3.841" class="c">main</text></svg><svg x="1805"><use xlink:href="#a"/><use xlink:href="#b" x="25.996" y="2.146"/><use xlink:href="#1"/><text y="3.841" class="i">13:22</text><text x="6.012" y="3.841" class="c">$</text><text x="8.016" y="3.841" class="c">nextflow</text><text x="17.034" y="3.841" class="c">run</text><text x="21.042" y="3.841" class="c">main.</text></svg><svg x="1900"><use xlink:href="#a"/><use xlink:href="#b" x="26.996" y="2.146"/><use xlink:href="#1"/><text y="3.841" class="i">13:22</text><text x="6.012" y="3.841" class="c">$</text><text x="8.016" y="3.841" class="c">nextflow</text><text x="17.034" y="3.841" class="c">run</text><text x="21.042" y="3.841" class="c">main.n</text></svg><svg x="1995"><use xlink:href="#a"/><use xlink:href="#b" x="27.996" y="2.146"/><use xlink:href="#1"/><use xlink:href="#5" y="2.171"/></svg><svg x="2090"><use xlink:href="#a"/><use xlink:href="#b" x="-.004" y="4.317"/><use xlink:href="#1"/><use xlink:href="#5" y="2.171"/></svg><svg x="2185"><use xlink:href="#a"/><use xlink:href="#b" x="-.004" y="6.488"/><use xlink:href="#1"/><use xlink:href="#5" y="2.171"/><use xlink:href="#6" y="4.342"/></svg><svg x="2280"><use xlink:href="#a"/><use xlink:href="#b" x="-.004" y="8.659"/><use xlink:href="#1"/><use xlink:href="#5" y="2.171"/><use xlink:href="#6" y="4.342"/><use xlink:href="#7" y="6.513"/></svg><svg x="2375"><use xlink:href="#a"/><use xlink:href="#b" x="-.004" y="13.001"/><use xlink:href="#1"/><use xlink:href="#5" y="2.171"/><use xlink:href="#6" y="4.342"/><use xlink:href="#7" y="6.513"/><use xlink:href="#8" y="8.684"/><use xlink:href="#9" y="10.855"/></svg><svg x="2470"><use xlink:href="#a"/><use xlink:href="#b" x="-.004" y="17.343"/><use xlink:href="#1"/><use xlink:href="#5" y="2.171"/><use xlink:href="#6" y="4.342"/><use xlink:href="#7" y="6.513"/><use xlink:href="#8" y="8.684"/><use xlink:href="#9" y="10.855"/><use xlink:href="#10" y="13.026"/><use xlink:href="#9" y="15.197"/></svg><svg x="2565"><use xlink:href="#a"/><use xlink:href="#b" x="3.996" y="19.514"/><use xlink:href="#1"/><use xlink:href="#5" y="2.171"/><use xlink:href="#6" y="4.342"/><use xlink:href="#7" y="6.513"/><use xlink:href="#8" y="8.684"/><use xlink:href="#9" y="10.855"/><use xlink:href="#10" y="13.026"/><use xlink:href="#9" y="15.197"/><use xlink:href="#11" y="17.368"/><use xlink:href="#9" y="19.539"/></svg><svg x="2660"><use xlink:href="#a"/><use xlink:href="#b" x="-.004" y="21.685"/><use xlink:href="#1"/><use xlink:href="#5" y="2.171"/><use xlink:href="#6" y="4.342"/><use xlink:href="#7" y="6.513"/><use xlink:href="#8" y="8.684"/><use xlink:href="#9" y="10.855"/><use xlink:href="#10" y="13.026"/><use xlink:href="#9" y="15.197"/><use xlink:href="#11" y="17.368"/><use xlink:href="#9" y="19.539"/></svg><svg x="2755"><use xlink:href="#a"/><use xlink:href="#b" x="3.996" y="23.856"/><use xlink:href="#1"/><use xlink:href="#5" y="2.171"/><use xlink:href="#6" y="4.342"/><use xlink:href="#7" y="6.513"/><use xlink:href="#8" y="8.684"/><use xlink:href="#9" y="10.855"/><use xlink:href="#10" y="13.026"/><use xlink:href="#9" y="15.197"/><use xlink:href="#11" y="17.368"/><use xlink:href="#9" y="19.539"/><use xlink:href="#12" y="21.71"/><use xlink:href="#9" y="23.881"/></svg><svg x="2850"><use xlink:href="#a"/><use xlink:href="#b" x="-.004" y="26.027"/><use xlink:href="#1"/><use xlink:href="#5" y="2.171"/><use xlink:href="#6" y="4.342"/><use xlink:href="#7" y="6.513"/><use xlink:href="#8" y="8.684"/><use xlink:href="#9" y="10.855"/><use xlink:href="#10" y="13.026"/><use xlink:href="#9" y="15.197"/><use xlink:href="#11" y="17.368"/><use xlink:href="#9" y="19.539"/><use xlink:href="#12" y="21.71"/><use xlink:href="#9" y="23.881"/></svg><svg x="2945"><use xlink:href="#a"/><use xlink:href="#b" x="3.996" y="28.198"/><use xlink:href="#1"/><use xlink:href="#5" y="2.171"/><use xlink:href="#6" y="4.342"/><use xlink:href="#7" y="6.513"/><use xlink:href="#8" y="8.684"/><use xlink:href="#9" y="10.855"/><use xlink:href="#10" y="13.026"/><use xlink:href="#9" y="15.197"/><use xlink:href="#11" y="17.368"/><use xlink:href="#9" y="19.539"/><use xlink:href="#12" y="21.71"/><use xlink:href="#9" y="23.881"/><use xlink:href="#13" y="26.052"/><use xlink:href="#9" y="28.223"/></svg><svg x="3040"><use xlink:href="#a"/><use xlink:href="#b" x="-.004" y="30.369"/><use xlink:href="#1"/><use xlink:href="#5" y="2.171"/><use xlink:href="#6" y="4.342"/><use xlink:href="#7" y="6.513"/><use xlink:href="#8" y="8.684"/><use xlink:href="#9" y="10.855"/><use xlink:href="#10" y="13.026"/><use xlink:href="#9" y="15.197"/><use xlink:href="#11" y="17.368"/><use xlink:href="#9" y="19.539"/><use xlink:href="#12" y="21.71"/><use xlink:href="#9" y="23.881"/><use xlink:href="#13" y="26.052"/><use xlink:href="#9" y="28.223"/></svg><svg x="3135"><use xlink:href="#a"/><use xlink:href="#b" x="3.996" y="32.54"/><use xlink:href="#1"/><use xlink:href="#5" y="2.171"/><use xlink:href="#6" y="4.342"/><use xlink:href="#7" y="6.513"/><use xlink:href="#8" y="8.684"/><use xlink:href="#9" y="10.855"/><use xlink:href="#10" y="13.026"/><use xlink:href="#9" y="15.197"/><use xlink:href="#11" y="17.368"/><use xlink:href="#9" y="19.539"/><use xlink:href="#12" y="21.71"/><use xlink:href="#9" y="23.881"/><use xlink:href="#13" y="26.052"/><use xlink:href="#9" y="28.223"/><use xlink:href="#14" y="30.394"/><use xlink:href="#9" y="32.565"/></svg><svg x="3230"><use xlink:href="#a"/><use xlink:href="#b" x="-.004" y="34.711"/><use xlink:href="#1"/><use xlink:href="#5" y="2.171"/><use xlink:href="#6" y="4.342"/><use xlink:href="#7" y="6.513"/><use xlink:href="#8" y="8.684"/><use xlink:href="#9" y="10.855"/><use xlink:href="#10" y="13.026"/><use xlink:href="#9" y="15.197"/><use xlink:href="#11" y="17.368"/><use xlink:href="#9" y="19.539"/><use xlink:href="#12" y="21.71"/><use xlink:href="#9" y="23.881"/><use xlink:href="#13" y="26.052"/><use xlink:href="#9" y="28.223"/><use xlink:href="#14" y="30.394"/><use xlink:href="#9" y="32.565"/></svg><svg x="3325"><use xlink:href="#a"/><use xlink:href="#b" x="3.996" y="36.882"/><use xlink:href="#1"/><use xlink:href="#5" y="2.171"/><use xlink:href="#6" y="4.342"/><use xlink:href="#7" y="6.513"/><use xlink:href="#8" y="8.684"/><use xlink:href="#9" y="10.855"/><use xlink:href="#10" y="13.026"/><use xlink:href="#9" y="15.197"/><use xlink:href="#11" y="17.368"/><use xlink:href="#9" y="19.539"/><use xlink:href="#12" y="21.71"/><use xlink:href="#9" y="23.881"/><use xlink:href="#13" y="26.052"/><use xlink:href="#9" y="28.223"/><use xlink:href="#14" y="30.394"/><use xlink:href="#9" y="32.565"/><use xlink:href="#15" y="34.736"/><use xlink:href="#9" y="36.907"/></svg><svg x="3420"><use xlink:href="#a"/><use xlink:href="#b" x="-.004" y="39.053"/><use xlink:href="#1"/><use xlink:href="#5" y="2.171"/><use xlink:href="#6" y="4.342"/><use xlink:href="#7" y="6.513"/><use xlink:href="#8" y="8.684"/><use xlink:href="#9" y="10.855"/><use xlink:href="#10" y="13.026"/><use xlink:href="#9" y="15.197"/><use xlink:href="#11" y="17.368"/><use xlink:href="#9" y="19.539"/><use xlink:href="#12" y="21.71"/><use xlink:href="#9" y="23.881"/><use xlink:href="#13" y="26.052"/><use xlink:href="#9" y="28.223"/><use xlink:href="#14" y="30.394"/><use xlink:href="#9" y="32.565"/><use xlink:href="#15" y="34.736"/><use xlink:href="#9" y="36.907"/></svg><svg x="3515"><use xlink:href="#a"/><use xlink:href="#b" x="7.996" y="41.224"/><use xlink:href="#1"/><use xlink:href="#5" y="2.171"/><use xlink:href="#6" y="4.342"/><use xlink:href="#7" y="6.513"/><use xlink:href="#8" y="8.684"/><use xlink:href="#9" y="10.855"/><use xlink:href="#10" y="13.026"/><use xlink:href="#9" y="15.197"/><use xlink:href="#11" y="17.368"/><use xlink:href="#9" y="19.539"/><use xlink:href="#12" y="21.71"/><use xlink:href="#9" y="23.881"/><use xlink:href="#13" y="26.052"/><use xlink:href="#9" y="28.223"/><use xlink:href="#14" y="30.394"/><use xlink:href="#9" y="32.565"/><use xlink:href="#15" y="34.736"/><use xlink:href="#9" y="36.907"/><use xlink:href="#1" y="39.078"/><use xlink:href="#2" y="41.249"/></svg><svg x="3610"><use xlink:href="#a"/><use xlink:href="#b" x="-.004" y="43.395"/><use xlink:href="#1"/><use xlink:href="#5" y="2.171"/><use xlink:href="#6" y="4.342"/><use xlink:href="#7" y="6.513"/><use xlink:href="#8" y="8.684"/><use xlink:href="#9" y="10.855"/><use xlink:href="#10" y="13.026"/><use xlink:href="#9" y="15.197"/><use xlink:href="#11" y="17.368"/><use xlink:href="#9" y="19.539"/><use xlink:href="#12" y="21.71"/><use xlink:href="#9" y="23.881"/><use xlink:href="#13" y="26.052"/><use xlink:href="#9" y="28.223"/><use xlink:href="#14" y="30.394"/><use xlink:href="#9" y="32.565"/><use xlink:href="#15" y="34.736"/><use xlink:href="#9" y="36.907"/><use xlink:href="#1" y="39.078"/><text y="42.919" class="i">13:22</text><text x="6.012" y="42.919" class="c">$</text><text x="8.016" y="42.919" class="c">exit</text></svg></svg></g></g></svg></svg>