<svg xmlns="http://www.w3.org/2000/svg" xmlns:xlink="http://www.w3.org/1999/xlink" width="950" height="542.75"><rect width="950" height="542.75" rx="0" ry="0" class="a"/><svg height="542.75" viewBox="0 0 95 54.275" width="950" xmlns="http://www.w3.org/2000/svg" xmlns:xlink="http://www.w3.org/1999/xlink"><style>@keyframes l{0%{transform:translateX(0)}4.9%{transform:translateX(-95px)}20%{transform:translateX(-190px)}20.8%{transform:translateX(-285px)}22.8%{transform:translateX(-380px)}23.9%{transform:translateX(-475px)}25.9%{transform:translateX(-570px)}30.6%{transform:translateX(-665px)}33.5%{transform:translateX(-760px)}34.2%{transform:translateX(-855px)}35.3%{transform:translateX(-950px)}38%{transform:translateX(-1045px)}39.3%{transform:translateX(-1140px)}40.2%{transform:translateX(-1235px)}42.8%{transform:translateX(-1330px)}48.6%{transform:translateX(-1425px)}60.4%{transform:translateX(-1520px)}60.5%{transform:translateX(-1615px)}74.2%{transform:translateX(-1710px)}76.5%{transform:translateX(-1805px)}76.7%{transform:translateX(-1900px)}76.8%{transform:translateX(-2090px)}76.9%{transform:translateX(-2280px)}77%{transform:translateX(-2375px)}85.9%{transform:translateX(-2470px)}to{transform:translateX(-2565px)}}.a{fill:#282d35}.c{fill:#b9c0cb}.i{fill:#b9bfca}</style><g font-size="1.67" font-family="Monaco,Consolas,Menlo,'Bitstream Vera Sans Mono','Powerline Symbols',monospace"><defs><symbol id="1"><text y="1.67" class="c">(</text><text x="1.002" y="1.67" fill="#71bef2">base</text><text x="5.01" y="1.67" class="c">)</text><text x="7.014" y="1.67" fill="#a8cc8c">✔</text><text x="9.018" y="1.67" fill="#dbab79">/tmp/nf-simple</text><text x="24.048" y="1.67" class="c">[</text><text x="25.05" y="1.67" fill="#d290e4">master</text><text x="32.064" y="1.67" class="c">L|</text><text x="34.068" y="1.67" fill="#66c2cd">…6</text><text x="36.072" y="1.67" class="c">]</text></symbol><symbol id="2"><text y="1.67" class="i">14:09</text><text x="6.012" y="1.67" class="c">$</text></symbol><symbol id="3"><text y="1.67" class="i">14:09</text><text x="6.012" y="1.67" class="c">$</text><text x="8.016" y="1.67" class="c">nextflow</text></symbol><symbol id="4"><text y="1.67" class="i">14:09</text><text x="6.012" y="1.67" class="c">$</text><text x="8.016" y="1.67" class="c">nextflow</text><text x="17.034" y="1.67" class="c">run</text></symbol><symbol id="5"><text y="1.67" class="i">14:09</text><text x="6.012" y="1.67" class="c">$</text><text x="8.016" y="1.67" class="c">nextflow</text><text x="17.034" y="1.67" class="c">run</text><text x="21.042" y="1.67" class="c">main.nf</text></symbol><symbol id="6"><text y="1.67" class="c">N</text><text x="2.004" y="1.67" class="c">E</text><text x="4.008" y="1.67" class="c">X</text><text x="6.012" y="1.67" class="c">T</text><text x="8.016" y="1.67" class="c">F</text><text x="10.02" y="1.67" class="c">L</text><text x="12.024" y="1.67" class="c">O</text><text x="14.028" y="1.67" class="c">W</text><text x="17.034" y="1.67" class="c">~</text><text x="20.04" y="1.67" class="c">version</text><text x="28.056" y="1.67" class="c">19.01.0</text></symbol><symbol id="7"><text y="1.67" class="c">Launching</text><text x="10.02" y="1.67" class="c">`main.nf`</text><text x="20.04" y="1.67" class="c">[clever_blackwell]</text><text x="39.078" y="1.67" class="c">-</text><text x="41.082" y="1.67" class="c">revision:</text><text x="51.102" y="1.67" class="c">6394491caa</text></symbol><symbol id="8"><text y="1.67" class="c">[warm</text><text x="6.012" y="1.67" class="c">up]</text><text x="10.02" y="1.67" class="c">executor</text><text x="19.038" y="1.67" class="c">&gt;</text><text x="21.042" y="1.67" class="c">local</text></symbol><symbol id="9"><text y="1.67" class="c">[03/a0fbe7]</text><text x="12.024" y="1.67" class="c">Submitted</text><text x="22.044" y="1.67" class="c">process</text><text x="30.06" y="1.67" class="c">&gt;</text><text x="32.064" y="1.67" class="c">filter_reads</text><text x="45.09" y="1.67" class="c">(3)</text></symbol><symbol id="10"><text y="1.67" class="c">[f8/3b2482]</text><text x="12.024" y="1.67" class="c">Submitted</text><text x="22.044" y="1.67" class="c">process</text><text x="30.06" y="1.67" class="c">&gt;</text><text x="32.064" y="1.67" class="c">filter_reads</text><text x="45.09" y="1.67" class="c">(5)</text></symbol><symbol id="11"><text y="1.67" class="c">[c5/45a7f7]</text><text x="12.024" y="1.67" class="c">Submitted</text><text x="22.044" y="1.67" class="c">process</text><text x="30.06" y="1.67" class="c">&gt;</text><text x="32.064" y="1.67" class="c">filter_reads</text><text x="45.09" y="1.67" class="c">(6)</text></symbol><symbol id="12"><text y="1.67" class="c">[71/7c0cd4]</text><text x="12.024" y="1.67" class="c">Submitted</text><text x="22.044" y="1.67" class="c">process</text><text x="30.06" y="1.67" class="c">&gt;</text><text x="32.064" y="1.67" class="c">filter_reads</text><text x="45.09" y="1.67" class="c">(4)</text></symbol><symbol id="13"><text y="1.67" class="c">[51/4db5a9]</text><text x="12.024" y="1.67" class="c">Submitted</text><text x="22.044" y="1.67" class="c">process</text><text x="30.06" y="1.67" class="c">&gt;</text><text x="32.064" y="1.67" class="c">filter_reads</text><text x="45.09" y="1.67" class="c">(7)</text></symbol><symbol id="14"><text y="1.67" class="c">[12/84c8bc]</text><text x="12.024" y="1.67" class="c">Submitted</text><text x="22.044" y="1.67" class="c">process</text><text x="30.06" y="1.67" class="c">&gt;</text><text x="32.064" y="1.67" class="c">filter_reads</text><text x="45.09" y="1.67" class="c">(2)</text></symbol><symbol id="15"><text y="1.67" class="c">[ed/7c6ea3]</text><text x="12.024" y="1.67" class="c">Submitted</text><text x="22.044" y="1.67" class="c">process</text><text x="30.06" y="1.67" class="c">&gt;</text><text x="32.064" y="1.67" class="c">filter_reads</text><text x="45.09" y="1.67" class="c">(1)</text></symbol><symbol id="a"><path fill="transparent" d="M0 0h95v25H0z"/></symbol><symbol id="b"><path fill="#6f7683" d="M0 0h1.102v2.171H0z"/></symbol></defs><path class="a" d="M0 0h95v54.275H0z"/><g style="animation-duration:12.135828s;animation-iteration-count:infinite;animation-name:l;animation-timing-function:steps(1,end)"><svg width="2660"><svg><use xlink:href="#a"/><use xlink:href="#b" x="-.004"/></svg><svg x="95"><use xlink:href="#a"/><use xlink:href="#b" x="7.996" y="2.146"/><use xlink:href="#1"/><use xlink:href="#2" y="2.171"/></svg><svg x="190"><use xlink:href="#a"/><use xlink:href="#b" x="8.996" y="2.146"/><use xlink:href="#1"/><text y="3.841" class="i">14:09</text><text x="6.012" y="3.841" class="c">$</text><text x="8.016" y="3.841" class="c">n</text></svg><svg x="285"><use xlink:href="#a"/><use xlink:href="#b" x="9.996" y="2.146"/><use xlink:href="#1"/><text y="3.841" class="i">14:09</text><text x="6.012" y="3.841" class="c">$</text><text x="8.016" y="3.841" class="c">ne</text></svg><svg x="380"><use xlink:href="#a"/><use xlink:href="#b" x="10.996" y="2.146"/><use xlink:href="#1"/><text y="3.841" class="i">14:09</text><text x="6.012" y="3.841" class="c">$</text><text x="8.016" y="3.841" class="c">nex</text></svg><svg x="475"><use xlink:href="#a"/><use xlink:href="#b" x="11.996" y="2.146"/><use xlink:href="#1"/><text y="3.841" class="i">14:09</text><text x="6.012" y="3.841" class="c">$</text><text x="8.016" y="3.841" class="c">next</text></svg><svg x="570"><use xlink:href="#a"/><use xlink:href="#b" x="15.996" y="2.146"/><use xlink:href="#1"/><use xlink:href="#3" y="2.171"/></svg><svg x="665"><use xlink:href="#a"/><use xlink:href="#b" x="16.996" y="2.146"/><use xlink:href="#1"/><use xlink:href="#3" y="2.171"/></svg><svg x="760"><use xlink:href="#a"/><use xlink:href="#b" x="17.996" y="2.146"/><use xlink:href="#1"/><text y="3.841" class="i">14:09</text><text x="6.012" y="3.841" class="c">$</text><text x="8.016" y="3.841" class="c">nextflow</text><text x="17.034" y="3.841" class="c">r</text></svg><svg x="855"><use xlink:href="#a"/><use xlink:href="#b" x="18.996" y="2.146"/><use xlink:href="#1"/><text y="3.841" class="i">14:09</text><text x="6.012" y="3.841" class="c">$</text><text x="8.016" y="3.841" class="c">nextflow</text><text x="17.034" y="3.841" class="c">ru</text></svg><svg x="950"><use xlink:href="#a"/><use xlink:href="#b" x="19.996" y="2.146"/><use xlink:href="#1"/><use xlink:href="#4" y="2.171"/></svg><svg x="1045"><use xlink:href="#a"/><use xlink:href="#b" x="20.996" y="2.146"/><use xlink:href="#1"/><use xlink:href="#4" y="2.171"/></svg><svg x="1140"><use xlink:href="#a"/><use xlink:href="#b" x="21.996" y="2.146"/><use xlink:href="#1"/><text y="3.841" class="i">14:09</text><text x="6.012" y="3.841" class="c">$</text><text x="8.016" y="3.841" class="c">nextflow</text><text x="17.034" y="3.841" class="c">run</text><text x="21.042" y="3.841" class="c">m</text></svg><svg x="1235"><use xlink:href="#a"/><use xlink:href="#b" x="22.996" y="2.146"/><use xlink:href="#1"/><text y="3.841" class="i">14:09</text><text x="6.012" y="3.841" class="c">$</text><text x="8.016" y="3.841" class="c">nextflow</text><text x="17.034" y="3.841" class="c">run</text><text x="21.042" y="3.841" class="c">ma</text></svg><svg x="1330"><use xlink:href="#a"/><use xlink:href="#b" x="28.996" y="2.146"/><use xlink:href="#1"/><use xlink:href="#5" y="2.171"/></svg><svg x="1425"><use xlink:href="#a"/><use xlink:href="#b" x="-.004" y="4.317"/><use xlink:href="#1"/><use xlink:href="#5" y="2.171"/></svg><svg x="1520"><use xlink:href="#a"/><use xlink:href="#b" x="-.004" y="6.488"/><use xlink:href="#1"/><use xlink:href="#5" y="2.171"/><use xlink:href="#6" y="4.342"/></svg><svg x="1615"><use xlink:href="#a"/><use xlink:href="#b" x="-.004" y="8.659"/><use xlink:href="#1"/><use xlink:href="#5" y="2.171"/><use xlink:href="#6" y="4.342"/><use xlink:href="#7" y="6.513"/></svg><svg x="1710"><use xlink:href="#a"/><use xlink:href="#b" x="-.004" y="10.83"/><use xlink:href="#1"/><use xlink:href="#5" y="2.171"/><use xlink:href="#6" y="4.342"/><use xlink:href="#7" y="6.513"/><use xlink:href="#8" y="8.684"/></svg><svg x="1805"><use xlink:href="#a"/><use xlink:href="#b" x="-.004" y="13.001"/><use xlink:href="#1"/><use xlink:href="#5" y="2.171"/><use xlink:href="#6" y="4.342"/><use xlink:href="#7" y="6.513"/><use xlink:href="#8" y="8.684"/><use xlink:href="#9" y="10.855"/></svg><svg x="1900"><use xlink:href="#a"/><use xlink:href="#b" x="-.004" y="15.172"/><use xlink:href="#1"/><use xlink:href="#5" y="2.171"/><use xlink:href="#6" y="4.342"/><use xlink:href="#7" y="6.513"/><use xlink:href="#8" y="8.684"/><use xlink:href="#9" y="10.855"/><use xlink:href="#10" y="13.026"/></svg><svg x="1995"><use xlink:href="#a"/><use xlink:href="#b" x="-.004" y="17.343"/><use xlink:href="#1"/><use xlink:href="#5" y="2.171"/><use xlink:href="#6" y="4.342"/><use xlink:href="#7" y="6.513"/><use xlink:href="#8" y="8.684"/><use xlink:href="#9" y="10.855"/><use xlink:href="#10" y="13.026"/><use xlink:href="#11" y="15.197"/></svg><svg x="2090"><use xlink:href="#a"/><use xlink:href="#b" x="-.004" y="19.514"/><use xlink:href="#1"/><use xlink:href="#5" y="2.171"/><use xlink:href="#6" y="4.342"/><use xlink:href="#7" y="6.513"/><use xlink:href="#8" y="8.684"/><use xlink:href="#9" y="10.855"/><use xlink:href="#10" y="13.026"/><use xlink:href="#11" y="15.197"/><use xlink:href="#12" y="17.368"/></svg><svg x="2185"><use xlink:href="#a"/><use xlink:href="#b" x="-.004" y="21.685"/><use xlink:href="#1"/><use xlink:href="#5" y="2.171"/><use xlink:href="#6" y="4.342"/><use xlink:href="#7" y="6.513"/><use xlink:href="#8" y="8.684"/><use xlink:href="#9" y="10.855"/><use xlink:href="#10" y="13.026"/><use xlink:href="#11" y="15.197"/><use xlink:href="#12" y="17.368"/><use xlink:href="#13" y="19.539"/></svg><svg x="2280"><use xlink:href="#a"/><use xlink:href="#b" x="-.004" y="23.856"/><use xlink:href="#1"/><use xlink:href="#5" y="2.171"/><use xlink:href="#6" y="4.342"/><use xlink:href="#7" y="6.513"/><use xlink:href="#8" y="8.684"/><use xlink:href="#9" y="10.855"/><use xlink:href="#10" y="13.026"/><use xlink:href="#11" y="15.197"/><use xlink:href="#12" y="17.368"/><use xlink:href="#13" y="19.539"/><use xlink:href="#14" y="21.71"/></svg><svg x="2375"><use xlink:href="#a"/><use xlink:href="#b" x="-.004" y="26.027"/><use xlink:href="#1"/><use xlink:href="#5" y="2.171"/><use xlink:href="#6" y="4.342"/><use xlink:href="#7" y="6.513"/><use xlink:href="#8" y="8.684"/><use xlink:href="#9" y="10.855"/><use xlink:href="#10" y="13.026"/><use xlink:href="#11" y="15.197"/><use xlink:href="#12" y="17.368"/><use xlink:href="#13" y="19.539"/><use xlink:href="#14" y="21.71"/><use xlink:href="#15" y="23.881"/></svg><svg x="2470"><use xlink:href="#a"/><use xlink:href="#b" x="7.996" y="28.198"/><use xlink:href="#1"/><use xlink:href="#5" y="2.171"/><use xlink:href="#6" y="4.342"/><use xlink:href="#7" y="6.513"/><use xlink:href="#8" y="8.684"/><use xlink:href="#9" y="10.855"/><use xlink:href="#10" y="13.026"/><use xlink:href="#11" y="15.197"/><use xlink:href="#12" y="17.368"/><use xlink:href="#13" y="19.539"/><use xlink:href="#14" y="21.71"/><use xlink:href="#15" y="23.881"/><use xlink:href="#1" y="26.052"/><use xlink:href="#2" y="28.223"/></svg><svg x="2565"><use xlink:href="#a"/><use xlink:href="#b" x="-.004" y="30.369"/><use xlink:href="#1"/><use xlink:href="#5" y="2.171"/><use xlink:href="#6" y="4.342"/><use xlink:href="#7" y="6.513"/><use xlink:href="#8" y="8.684"/><use xlink:href="#9" y="10.855"/><use xlink:href="#10" y="13.026"/><use xlink:href="#11" y="15.197"/><use xlink:href="#12" y="17.368"/><use xlink:href="#13" y="19.539"/><use xlink:href="#14" y="21.71"/><use xlink:href="#15" y="23.881"/><use xlink:href="#1" y="26.052"/><text y="29.893" class="i">14:09</text><text x="6.012" y="29.893" class="c">$</text><text x="8.016" y="29.893" class="c">exit</text></svg></svg></g></g></svg></svg>