<svg xmlns="http://www.w3.org/2000/svg" xmlns:xlink="http://www.w3.org/1999/xlink" width="950" height="542.75"><rect width="950" height="542.75" rx="0" ry="0" class="a"/><svg height="542.75" viewBox="0 0 95 54.275" width="950" xmlns="http://www.w3.org/2000/svg" xmlns:xlink="http://www.w3.org/1999/xlink"><style>@keyframes l{0%{transform:translateX(0)}.76%{transform:translateX(-95px)}1.42%{transform:translateX(-190px)}1.57%{transform:translateX(-285px)}1.87%{transform:translateX(-380px)}2.2%{transform:translateX(-475px)}2.81%{transform:translateX(-570px)}3.1%{transform:translateX(-665px)}3.19%{transform:translateX(-760px)}3.35%{transform:translateX(-855px)}3.49%{transform:translateX(-950px)}3.68%{transform:translateX(-1045px)}3.81%{transform:translateX(-1140px)}4%{transform:translateX(-1235px)}4.15%{transform:translateX(-1330px)}4.31%{transform:translateX(-1425px)}4.8%{transform:translateX(-1520px)}5.4%{transform:translateX(-1615px)}5.61%{transform:translateX(-1710px)}5.89%{transform:translateX(-1805px)}5.99%{transform:translateX(-1900px)}6.24%{transform:translateX(-1995px)}6.3%{transform:translateX(-2090px)}7.01%{transform:translateX(-2185px)}8.78%{transform:translateX(-2280px)}8.79%{transform:translateX(-2375px)}10.86%{transform:translateX(-2470px)}11.25%{transform:translateX(-2850px)}11.26%{transform:translateX(-3135px)}11.3%{transform:translateX(-3230px)}41.67%{transform:translateX(-3325px)}41.69%{transform:translateX(-3420px)}41.7%{transform:translateX(-3515px)}41.71%{transform:translateX(-3610px)}41.72%{transform:translateX(-3800px)}41.73%{transform:translateX(-3895px)}79.79%{transform:translateX(-3990px)}86.88%{transform:translateX(-4085px)}87%{transform:translateX(-4180px)}87.15%{transform:translateX(-4275px)}87.5%{transform:translateX(-4370px)}87.57%{transform:translateX(-4465px)}87.95%{transform:translateX(-4560px)}93.13%{transform:translateX(-4655px)}93.34%{transform:translateX(-4750px)}93.54%{transform:translateX(-4845px)}93.73%{transform:translateX(-4940px)}93.91%{transform:translateX(-5035px)}94.09%{transform:translateX(-5130px)}94.41%{transform:translateX(-5225px)}94.71%{transform:translateX(-5320px)}94.89%{transform:translateX(-5415px)}95.08%{transform:translateX(-5510px)}95.8%{transform:translateX(-5605px)}97.53%{transform:translateX(-5795px)}97.64%{transform:translateX(-5890px)}to{transform:translateX(-5985px)}}.a{fill:#282d35}.c{fill:#b9c0cb}.d{fill:#71bef2}.e{fill:#a8cc8c}.f{fill:#dbab79}.g{fill:#d290e4}.h{fill:#66c2cd}.i{fill:#b9bfca}</style><g font-size="1.67" font-family="Monaco,Consolas,Menlo,'Bitstream Vera Sans Mono','Powerline Symbols',monospace"><defs><symbol id="1"><text y="1.67" class="c">(</text><text x="1.002" y="1.67" class="d">base</text><text x="5.01" y="1.67" class="c">)</text><text x="7.014" y="1.67" class="e">✔</text><text x="9.018" y="1.67" class="f">/tmp/nf-simple</text><text x="24.048" y="1.67" class="c">[</text><text x="25.05" y="1.67" class="g">master</text><text x="32.064" y="1.67" class="c">L|</text><text x="34.068" y="1.67" class="h">…7</text><text x="36.072" y="1.67" class="c">]</text></symbol><symbol id="2"><text y="1.67" class="i">16:22</text><text x="6.012" y="1.67" class="c">$</text><text x="8.016" y="1.67" class="c">nextflow</text></symbol><symbol id="3"><text y="1.67" class="i">16:22</text><text x="6.012" y="1.67" class="c">$</text><text x="8.016" y="1.67" class="c">nextflow</text><text x="17.034" y="1.67" class="c">run</text></symbol><symbol id="4"><text y="1.67" class="i">16:22</text><text x="6.012" y="1.67" class="c">$</text><text x="8.016" y="1.67" class="c">nextflow</text><text x="17.034" y="1.67" class="c">run</text><text x="21.042" y="1.67" class="c">main.nf</text><text x="29.058" y="1.67" class="c">-resume</text></symbol><symbol id="5"><text y="1.67" class="c">N</text><text x="2.004" y="1.67" class="c">E</text><text x="4.008" y="1.67" class="c">X</text><text x="6.012" y="1.67" class="c">T</text><text x="8.016" y="1.67" class="c">F</text><text x="10.02" y="1.67" class="c">L</text><text x="12.024" y="1.67" class="c">O</text><text x="14.028" y="1.67" class="c">W</text><text x="17.034" y="1.67" class="c">~</text><text x="20.04" y="1.67" class="c">version</text><text x="28.056" y="1.67" class="c">19.01.0</text></symbol><symbol id="6"><text y="1.67" class="c">Launching</text><text x="10.02" y="1.67" class="c">`main.nf`</text><text x="20.04" y="1.67" class="c">[fabulous_leakey]</text><text x="38.076" y="1.67" class="c">-</text><text x="40.08" y="1.67" class="c">revision:</text><text x="50.1" y="1.67" class="c">6cd1d24f85</text></symbol><symbol id="7"><text y="1.67" class="c">[warm</text><text x="6.012" y="1.67" class="c">up]</text><text x="10.02" y="1.67" class="c">executor</text><text x="19.038" y="1.67" class="c">&gt;</text><text x="21.042" y="1.67" class="c">local</text></symbol><symbol id="8"><text y="1.67" class="c">[c5/45a7f7]</text><text x="12.024" y="1.67" class="c">Cached</text><text x="19.038" y="1.67" class="c">process</text><text x="27.054" y="1.67" class="c">&gt;</text><text x="29.058" y="1.67" class="c">filter_reads</text><text x="42.084" y="1.67" class="c">(6)</text></symbol><symbol id="9"><text y="1.67" class="c">[12/84c8bc]</text><text x="12.024" y="1.67" class="c">Cached</text><text x="19.038" y="1.67" class="c">process</text><text x="27.054" y="1.67" class="c">&gt;</text><text x="29.058" y="1.67" class="c">filter_reads</text><text x="42.084" y="1.67" class="c">(2)</text></symbol><symbol id="10"><text y="1.67" class="c">[03/a0fbe7]</text><text x="12.024" y="1.67" class="c">Cached</text><text x="19.038" y="1.67" class="c">process</text><text x="27.054" y="1.67" class="c">&gt;</text><text x="29.058" y="1.67" class="c">filter_reads</text><text x="42.084" y="1.67" class="c">(3)</text></symbol><symbol id="11"><text y="1.67" class="c">[ed/7c6ea3]</text><text x="12.024" y="1.67" class="c">Cached</text><text x="19.038" y="1.67" class="c">process</text><text x="27.054" y="1.67" class="c">&gt;</text><text x="29.058" y="1.67" class="c">filter_reads</text><text x="42.084" y="1.67" class="c">(1)</text></symbol><symbol id="12"><text y="1.67" class="c">[71/7c0cd4]</text><text x="12.024" y="1.67" class="c">Cached</text><text x="19.038" y="1.67" class="c">process</text><text x="27.054" y="1.67" class="c">&gt;</text><text x="29.058" y="1.67" class="c">filter_reads</text><text x="42.084" y="1.67" class="c">(4)</text></symbol><symbol id="13"><text y="1.67" class="c">[f8/3b2482]</text><text x="12.024" y="1.67" class="c">Cached</text><text x="19.038" y="1.67" class="c">process</text><text x="27.054" y="1.67" class="c">&gt;</text><text x="29.058" y="1.67" class="c">filter_reads</text><text x="42.084" y="1.67" class="c">(5)</text></symbol><symbol id="14"><text y="1.67" class="c">[51/4db5a9]</text><text x="12.024" y="1.67" class="c">Cached</text><text x="19.038" y="1.67" class="c">process</text><text x="27.054" y="1.67" class="c">&gt;</text><text x="29.058" y="1.67" class="c">filter_reads</text><text x="42.084" y="1.67" class="c">(7)</text></symbol><symbol id="15"><text y="1.67" class="c">Creating</text><text x="9.018" y="1.67" class="c">Conda</text><text x="15.03" y="1.67" class="c">env:</text><text x="20.04" y="1.67" class="c">bioconda::spades=3.13.0</text><text x="44.088" y="1.67" class="c">[cache</text><text x="51.102" y="1.67" class="c">/tmp/nf-simple/work/conda/env-2c6fc38e8148ca</text></symbol><symbol id="16"><text y="1.67" class="c">08a02bf69fa165863d]</text></symbol><symbol id="17"><text y="1.67" class="c">[22/b1cd79]</text><text x="12.024" y="1.67" class="c">Submitted</text><text x="22.044" y="1.67" class="c">process</text><text x="30.06" y="1.67" class="c">&gt;</text><text x="32.064" y="1.67" class="c">assembly</text><text x="41.082" y="1.67" class="c">(Sample-e90c)</text></symbol><symbol id="18"><text y="1.67" class="c">[58/6b1edf]</text><text x="12.024" y="1.67" class="c">Submitted</text><text x="22.044" y="1.67" class="c">process</text><text x="30.06" y="1.67" class="c">&gt;</text><text x="32.064" y="1.67" class="c">assembly</text><text x="41.082" y="1.67" class="c">(Sample-80ae)</text></symbol><symbol id="19"><text y="1.67" class="c">[0d/efd174]</text><text x="12.024" y="1.67" class="c">Submitted</text><text x="22.044" y="1.67" class="c">process</text><text x="30.06" y="1.67" class="c">&gt;</text><text x="32.064" y="1.67" class="c">assembly</text><text x="41.082" y="1.67" class="c">(Sample-04e4)</text></symbol><symbol id="20"><text y="1.67" class="c">[df/fbec61]</text><text x="12.024" y="1.67" class="c">Submitted</text><text x="22.044" y="1.67" class="c">process</text><text x="30.06" y="1.67" class="c">&gt;</text><text x="32.064" y="1.67" class="c">assembly</text><text x="41.082" y="1.67" class="c">(Sample-36db)</text></symbol><symbol id="21"><text y="1.67" class="c">[c0/e66112]</text><text x="12.024" y="1.67" class="c">Submitted</text><text x="22.044" y="1.67" class="c">process</text><text x="30.06" y="1.67" class="c">&gt;</text><text x="32.064" y="1.67" class="c">assembly</text><text x="41.082" y="1.67" class="c">(Sample-a4a7)</text></symbol><symbol id="22"><text y="1.67" class="c">[42/de08d9]</text><text x="12.024" y="1.67" class="c">Submitted</text><text x="22.044" y="1.67" class="c">process</text><text x="30.06" y="1.67" class="c">&gt;</text><text x="32.064" y="1.67" class="c">assembly</text><text x="41.082" y="1.67" class="c">(Sample-9f50)</text></symbol><symbol id="23"><text y="1.67" class="c">[05/080f98]</text><text x="12.024" y="1.67" class="c">Submitted</text><text x="22.044" y="1.67" class="c">process</text><text x="30.06" y="1.67" class="c">&gt;</text><text x="32.064" y="1.67" class="c">assembly</text><text x="41.082" y="1.67" class="c">(Sample-e814)</text></symbol><symbol id="24"><text y="1.67" class="c">(</text><text x="1.002" y="1.67" class="d">base</text><text x="5.01" y="1.67" class="c">)</text><text x="7.014" y="1.67" class="e">✔</text><text x="9.018" y="1.67" class="f">/tmp/nf-simple</text><text x="24.048" y="1.67" class="c">[</text><text x="25.05" y="1.67" class="g">master</text><text x="32.064" y="1.67" class="c">L|</text><text x="34.068" y="1.67" class="h">…8</text><text x="36.072" y="1.67" class="c">]</text></symbol><symbol id="25"><text y="1.67" class="i">16:23</text><text x="6.012" y="1.67" class="c">$</text></symbol><symbol id="26"><text y="1.67" class="i">16:23</text><text x="6.012" y="1.67" class="c">$</text><text x="8.016" y="1.67" class="c">ls</text></symbol><symbol id="27"><text y="1.67" class="i">16:23</text><text x="6.012" y="1.67" class="c">$</text><text x="8.016" y="1.67" class="c">ls</text><text x="11.022" y="1.67" class="c">r</text></symbol><symbol id="28"><text y="1.67" class="i">16:23</text><text x="6.012" y="1.67" class="c">$</text><text x="8.016" y="1.67" class="c">ls</text><text x="11.022" y="1.67" class="c">re</text></symbol><symbol id="29"><text y="1.67" class="i">16:23</text><text x="6.012" y="1.67" class="c">$</text><text x="8.016" y="1.67" class="c">ls</text><text x="11.022" y="1.67" class="c">null/assemblies/</text></symbol><symbol id="30"><text y="1.67" class="c">Sample-04e4.fasta</text><text x="19.038" y="1.67" class="c">Sample-80ae.fasta</text><text x="38.076" y="1.67" class="c">Sample-a4a7.fasta</text><text x="57.114" y="1.67" class="c">Sample-e90c.fasta</text></symbol><symbol id="31"><text y="1.67" class="c">Sample-36db.fasta</text><text x="19.038" y="1.67" class="c">Sample-9f50.fasta</text><text x="38.076" y="1.67" class="c">Sample-e814.fasta</text></symbol><symbol id="a"><path fill="transparent" d="M0 0h95v25H0z"/></symbol><symbol id="b"><path fill="#6f7683" d="M0 0h1.102v2.171H0z"/></symbol></defs><path class="a" d="M0 0h95v54.275H0z"/><g style="animation-duration:83.846457s;animation-iteration-count:infinite;animation-name:l;animation-timing-function:steps(1,end)"><svg width="6080"><svg><use xlink:href="#a"/><use xlink:href="#b" x="-.004"/></svg><svg x="95"><use xlink:href="#a"/><use xlink:href="#b" x="7.996" y="2.146"/><use xlink:href="#1"/><text y="3.841" class="i">16:22</text><text x="6.012" y="3.841" class="c">$</text></svg><svg x="190"><use xlink:href="#a"/><use xlink:href="#b" x="8.996" y="2.146"/><use xlink:href="#1"/><text y="3.841" class="i">16:22</text><text x="6.012" y="3.841" class="c">$</text><text x="8.016" y="3.841" class="c">n</text></svg><svg x="285"><use xlink:href="#a"/><use xlink:href="#b" x="9.996" y="2.146"/><use xlink:href="#1"/><text y="3.841" class="i">16:22</text><text x="6.012" y="3.841" class="c">$</text><text x="8.016" y="3.841" class="c">ne</text></svg><svg x="380"><use xlink:href="#a"/><use xlink:href="#b" x="10.996" y="2.146"/><use xlink:href="#1"/><text y="3.841" class="i">16:22</text><text x="6.012" y="3.841" class="c">$</text><text x="8.016" y="3.841" class="c">nex</text></svg><svg x="475"><use xlink:href="#a"/><use xlink:href="#b" x="15.996" y="2.146"/><use xlink:href="#1"/><use xlink:href="#2" y="2.171"/></svg><svg x="570"><use xlink:href="#a"/><use xlink:href="#b" x="16.996" y="2.146"/><use xlink:href="#1"/><use xlink:href="#2" y="2.171"/></svg><svg x="665"><use xlink:href="#a"/><use xlink:href="#b" x="17.996" y="2.146"/><use xlink:href="#1"/><text y="3.841" class="i">16:22</text><text x="6.012" y="3.841" class="c">$</text><text x="8.016" y="3.841" class="c">nextflow</text><text x="17.034" y="3.841" class="c">r</text></svg><svg x="760"><use xlink:href="#a"/><use xlink:href="#b" x="18.996" y="2.146"/><use xlink:href="#1"/><text y="3.841" class="i">16:22</text><text x="6.012" y="3.841" class="c">$</text><text x="8.016" y="3.841" class="c">nextflow</text><text x="17.034" y="3.841" class="c">ru</text></svg><svg x="855"><use xlink:href="#a"/><use xlink:href="#b" x="19.996" y="2.146"/><use xlink:href="#1"/><use xlink:href="#3" y="2.171"/></svg><svg x="950"><use xlink:href="#a"/><use xlink:href="#b" x="20.996" y="2.146"/><use xlink:href="#1"/><use xlink:href="#3" y="2.171"/></svg><svg x="1045"><use xlink:href="#a"/><use xlink:href="#b" x="21.996" y="2.146"/><use xlink:href="#1"/><text y="3.841" class="i">16:22</text><text x="6.012" y="3.841" class="c">$</text><text x="8.016" y="3.841" class="c">nextflow</text><text x="17.034" y="3.841" class="c">run</text><text x="21.042" y="3.841" class="c">m</text></svg><svg x="1140"><use xlink:href="#a"/><use xlink:href="#b" x="22.996" y="2.146"/><use xlink:href="#1"/><text y="3.841" class="i">16:22</text><text x="6.012" y="3.841" class="c">$</text><text x="8.016" y="3.841" class="c">nextflow</text><text x="17.034" y="3.841" class="c">run</text><text x="21.042" y="3.841" class="c">ma</text></svg><svg x="1235"><use xlink:href="#a"/><use xlink:href="#b" x="23.996" y="2.146"/><use xlink:href="#1"/><text y="3.841" class="i">16:22</text><text x="6.012" y="3.841" class="c">$</text><text x="8.016" y="3.841" class="c">nextflow</text><text x="17.034" y="3.841" class="c">run</text><text x="21.042" y="3.841" class="c">mai</text></svg><svg x="1330"><use xlink:href="#a"/><use xlink:href="#b" x="24.996" y="2.146"/><use xlink:href="#1"/><text y="3.841" class="i">16:22</text><text x="6.012" y="3.841" class="c">$</text><text x="8.016" y="3.841" class="c">nextflow</text><text x="17.034" y="3.841" class="c">run</text><text x="21.042" y="3.841" class="c">main</text></svg><svg x="1425"><use xlink:href="#a"/><use xlink:href="#b" x="28.996" y="2.146"/><use xlink:href="#1"/><text y="3.841" class="i">16:22</text><text x="6.012" y="3.841" class="c">$</text><text x="8.016" y="3.841" class="c">nextflow</text><text x="17.034" y="3.841" class="c">run</text><text x="21.042" y="3.841" class="c">main.nf</text></svg><svg x="1520"><use xlink:href="#a"/><use xlink:href="#b" x="29.996" y="2.146"/><use xlink:href="#1"/><text y="3.841" class="i">16:22</text><text x="6.012" y="3.841" class="c">$</text><text x="8.016" y="3.841" class="c">nextflow</text><text x="17.034" y="3.841" class="c">run</text><text x="21.042" y="3.841" class="c">main.nf</text><text x="29.058" y="3.841" class="c">-</text></svg><svg x="1615"><use xlink:href="#a"/><use xlink:href="#b" x="30.996" y="2.146"/><use xlink:href="#1"/><text y="3.841" class="i">16:22</text><text x="6.012" y="3.841" class="c">$</text><text x="8.016" y="3.841" class="c">nextflow</text><text x="17.034" y="3.841" class="c">run</text><text x="21.042" y="3.841" class="c">main.nf</text><text x="29.058" y="3.841" class="c">-r</text></svg><svg x="1710"><use xlink:href="#a"/><use xlink:href="#b" x="31.996" y="2.146"/><use xlink:href="#1"/><text y="3.841" class="i">16:22</text><text x="6.012" y="3.841" class="c">$</text><text x="8.016" y="3.841" class="c">nextflow</text><text x="17.034" y="3.841" class="c">run</text><text x="21.042" y="3.841" class="c">main.nf</text><text x="29.058" y="3.841" class="c">-re</text></svg><svg x="1805"><use xlink:href="#a"/><use xlink:href="#b" x="32.996" y="2.146"/><use xlink:href="#1"/><text y="3.841" class="i">16:22</text><text x="6.012" y="3.841" class="c">$</text><text x="8.016" y="3.841" class="c">nextflow</text><text x="17.034" y="3.841" class="c">run</text><text x="21.042" y="3.841" class="c">main.nf</text><text x="29.058" y="3.841" class="c">-res</text></svg><svg x="1900"><use xlink:href="#a"/><use xlink:href="#b" x="33.996" y="2.146"/><use xlink:href="#1"/><text y="3.841" class="i">16:22</text><text x="6.012" y="3.841" class="c">$</text><text x="8.016" y="3.841" class="c">nextflow</text><text x="17.034" y="3.841" class="c">run</text><text x="21.042" y="3.841" class="c">main.nf</text><text x="29.058" y="3.841" class="c">-resu</text></svg><svg x="1995"><use xlink:href="#a"/><use xlink:href="#b" x="34.996" y="2.146"/><use xlink:href="#1"/><text y="3.841" class="i">16:22</text><text x="6.012" y="3.841" class="c">$</text><text x="8.016" y="3.841" class="c">nextflow</text><text x="17.034" y="3.841" class="c">run</text><text x="21.042" y="3.841" class="c">main.nf</text><text x="29.058" y="3.841" class="c">-resum</text></svg><svg x="2090"><use xlink:href="#a"/><use xlink:href="#b" x="35.996" y="2.146"/><use xlink:href="#1"/><use xlink:href="#4" y="2.171"/></svg><svg x="2185"><use xlink:href="#a"/><use xlink:href="#b" x="-.004" y="4.317"/><use xlink:href="#1"/><use xlink:href="#4" y="2.171"/></svg><svg x="2280"><use xlink:href="#a"/><use xlink:href="#b" x="-.004" y="6.488"/><use xlink:href="#1"/><use xlink:href="#4" y="2.171"/><use xlink:href="#5" y="4.342"/></svg><svg x="2375"><use xlink:href="#a"/><use xlink:href="#b" x="-.004" y="8.659"/><use xlink:href="#1"/><use xlink:href="#4" y="2.171"/><use xlink:href="#5" y="4.342"/><use xlink:href="#6" y="6.513"/></svg><svg x="2470"><use xlink:href="#a"/><use xlink:href="#b" x="-.004" y="10.83"/><use xlink:href="#1"/><use xlink:href="#4" y="2.171"/><use xlink:href="#5" y="4.342"/><use xlink:href="#6" y="6.513"/><use xlink:href="#7" y="8.684"/></svg><svg x="2565"><use xlink:href="#a"/><use xlink:href="#b" x="-.004" y="13.001"/><use xlink:href="#1"/><use xlink:href="#4" y="2.171"/><use xlink:href="#5" y="4.342"/><use xlink:href="#6" y="6.513"/><use xlink:href="#7" y="8.684"/><use xlink:href="#8" y="10.855"/></svg><svg x="2660"><use xlink:href="#a"/><use xlink:href="#b" x="-.004" y="15.172"/><use xlink:href="#1"/><use xlink:href="#4" y="2.171"/><use xlink:href="#5" y="4.342"/><use xlink:href="#6" y="6.513"/><use xlink:href="#7" y="8.684"/><use xlink:href="#8" y="10.855"/><use xlink:href="#9" y="13.026"/></svg><svg x="2755"><use xlink:href="#a"/><use xlink:href="#b" x="-.004" y="17.343"/><use xlink:href="#1"/><use xlink:href="#4" y="2.171"/><use xlink:href="#5" y="4.342"/><use xlink:href="#6" y="6.513"/><use xlink:href="#7" y="8.684"/><use xlink:href="#8" y="10.855"/><use xlink:href="#9" y="13.026"/><use xlink:href="#10" y="15.197"/></svg><svg x="2850"><use xlink:href="#a"/><use xlink:href="#b" x="-.004" y="19.514"/><use xlink:href="#1"/><use xlink:href="#4" y="2.171"/><use xlink:href="#5" y="4.342"/><use xlink:href="#6" y="6.513"/><use xlink:href="#7" y="8.684"/><use xlink:href="#8" y="10.855"/><use xlink:href="#9" y="13.026"/><use xlink:href="#10" y="15.197"/><use xlink:href="#11" y="17.368"/></svg><svg x="2945"><use xlink:href="#a"/><use xlink:href="#b" x="-.004" y="21.685"/><use xlink:href="#1"/><use xlink:href="#4" y="2.171"/><use xlink:href="#5" y="4.342"/><use xlink:href="#6" y="6.513"/><use xlink:href="#7" y="8.684"/><use xlink:href="#8" y="10.855"/><use xlink:href="#9" y="13.026"/><use xlink:href="#10" y="15.197"/><use xlink:href="#11" y="17.368"/><use xlink:href="#12" y="19.539"/></svg><svg x="3040"><use xlink:href="#a"/><use xlink:href="#b" x="-.004" y="23.856"/><use xlink:href="#1"/><use xlink:href="#4" y="2.171"/><use xlink:href="#5" y="4.342"/><use xlink:href="#6" y="6.513"/><use xlink:href="#7" y="8.684"/><use xlink:href="#8" y="10.855"/><use xlink:href="#9" y="13.026"/><use xlink:href="#10" y="15.197"/><use xlink:href="#11" y="17.368"/><use xlink:href="#12" y="19.539"/><use xlink:href="#13" y="21.71"/></svg><svg x="3135"><use xlink:href="#a"/><use xlink:href="#b" x="-.004" y="26.027"/><use xlink:href="#1"/><use xlink:href="#4" y="2.171"/><use xlink:href="#5" y="4.342"/><use xlink:href="#6" y="6.513"/><use xlink:href="#7" y="8.684"/><use xlink:href="#8" y="10.855"/><use xlink:href="#9" y="13.026"/><use xlink:href="#10" y="15.197"/><use xlink:href="#11" y="17.368"/><use xlink:href="#12" y="19.539"/><use xlink:href="#13" y="21.71"/><use xlink:href="#14" y="23.881"/></svg><svg x="3230"><use xlink:href="#a"/><use xlink:href="#b" x="-.004" y="30.369"/><use xlink:href="#1"/><use xlink:href="#4" y="2.171"/><use xlink:href="#5" y="4.342"/><use xlink:href="#6" y="6.513"/><use xlink:href="#7" y="8.684"/><use xlink:href="#8" y="10.855"/><use xlink:href="#9" y="13.026"/><use xlink:href="#10" y="15.197"/><use xlink:href="#11" y="17.368"/><use xlink:href="#12" y="19.539"/><use xlink:href="#13" y="21.71"/><use xlink:href="#14" y="23.881"/><use xlink:href="#15" y="26.052"/><use xlink:href="#16" y="28.223"/></svg><svg x="3325"><use xlink:href="#a"/><use xlink:href="#b" x="-.004" y="32.54"/><use xlink:href="#1"/><use xlink:href="#4" y="2.171"/><use xlink:href="#5" y="4.342"/><use xlink:href="#6" y="6.513"/><use xlink:href="#7" y="8.684"/><use xlink:href="#8" y="10.855"/><use xlink:href="#9" y="13.026"/><use xlink:href="#10" y="15.197"/><use xlink:href="#11" y="17.368"/><use xlink:href="#12" y="19.539"/><use xlink:href="#13" y="21.71"/><use xlink:href="#14" y="23.881"/><use xlink:href="#15" y="26.052"/><use xlink:href="#16" y="28.223"/><use xlink:href="#17" y="30.394"/></svg><svg x="3420"><use xlink:href="#a"/><use xlink:href="#b" x="-.004" y="34.711"/><use xlink:href="#1"/><use xlink:href="#4" y="2.171"/><use xlink:href="#5" y="4.342"/><use xlink:href="#6" y="6.513"/><use xlink:href="#7" y="8.684"/><use xlink:href="#8" y="10.855"/><use xlink:href="#9" y="13.026"/><use xlink:href="#10" y="15.197"/><use xlink:href="#11" y="17.368"/><use xlink:href="#12" y="19.539"/><use xlink:href="#13" y="21.71"/><use xlink:href="#14" y="23.881"/><use xlink:href="#15" y="26.052"/><use xlink:href="#16" y="28.223"/><use xlink:href="#17" y="30.394"/><use xlink:href="#18" y="32.565"/></svg><svg x="3515"><use xlink:href="#a"/><use xlink:href="#b" x="-.004" y="36.882"/><use xlink:href="#1"/><use xlink:href="#4" y="2.171"/><use xlink:href="#5" y="4.342"/><use xlink:href="#6" y="6.513"/><use xlink:href="#7" y="8.684"/><use xlink:href="#8" y="10.855"/><use xlink:href="#9" y="13.026"/><use xlink:href="#10" y="15.197"/><use xlink:href="#11" y="17.368"/><use xlink:href="#12" y="19.539"/><use xlink:href="#13" y="21.71"/><use xlink:href="#14" y="23.881"/><use xlink:href="#15" y="26.052"/><use xlink:href="#16" y="28.223"/><use xlink:href="#17" y="30.394"/><use xlink:href="#18" y="32.565"/><use xlink:href="#19" y="34.736"/></svg><svg x="3610"><use xlink:href="#a"/><use xlink:href="#b" x="-.004" y="39.053"/><use xlink:href="#1"/><use xlink:href="#4" y="2.171"/><use xlink:href="#5" y="4.342"/><use xlink:href="#6" y="6.513"/><use xlink:href="#7" y="8.684"/><use xlink:href="#8" y="10.855"/><use xlink:href="#9" y="13.026"/><use xlink:href="#10" y="15.197"/><use xlink:href="#11" y="17.368"/><use xlink:href="#12" y="19.539"/><use xlink:href="#13" y="21.71"/><use xlink:href="#14" y="23.881"/><use xlink:href="#15" y="26.052"/><use xlink:href="#16" y="28.223"/><use xlink:href="#17" y="30.394"/><use xlink:href="#18" y="32.565"/><use xlink:href="#19" y="34.736"/><use xlink:href="#20" y="36.907"/></svg><svg x="3705"><use xlink:href="#a"/><use xlink:href="#b" x="-.004" y="41.224"/><use xlink:href="#1"/><use xlink:href="#4" y="2.171"/><use xlink:href="#5" y="4.342"/><use xlink:href="#6" y="6.513"/><use xlink:href="#7" y="8.684"/><use xlink:href="#8" y="10.855"/><use xlink:href="#9" y="13.026"/><use xlink:href="#10" y="15.197"/><use xlink:href="#11" y="17.368"/><use xlink:href="#12" y="19.539"/><use xlink:href="#13" y="21.71"/><use xlink:href="#14" y="23.881"/><use xlink:href="#15" y="26.052"/><use xlink:href="#16" y="28.223"/><use xlink:href="#17" y="30.394"/><use xlink:href="#18" y="32.565"/><use xlink:href="#19" y="34.736"/><use xlink:href="#20" y="36.907"/><use xlink:href="#21" y="39.078"/></svg><svg x="3800"><use xlink:href="#a"/><use xlink:href="#b" x="-.004" y="43.395"/><use xlink:href="#1"/><use xlink:href="#4" y="2.171"/><use xlink:href="#5" y="4.342"/><use xlink:href="#6" y="6.513"/><use xlink:href="#7" y="8.684"/><use xlink:href="#8" y="10.855"/><use xlink:href="#9" y="13.026"/><use xlink:href="#10" y="15.197"/><use xlink:href="#11" y="17.368"/><use xlink:href="#12" y="19.539"/><use xlink:href="#13" y="21.71"/><use xlink:href="#14" y="23.881"/><use xlink:href="#15" y="26.052"/><use xlink:href="#16" y="28.223"/><use xlink:href="#17" y="30.394"/><use xlink:href="#18" y="32.565"/><use xlink:href="#19" y="34.736"/><use xlink:href="#20" y="36.907"/><use xlink:href="#21" y="39.078"/><use xlink:href="#22" y="41.249"/></svg><svg x="3895"><use xlink:href="#a"/><use xlink:href="#b" x="-.004" y="45.566"/><use xlink:href="#1"/><use xlink:href="#4" y="2.171"/><use xlink:href="#5" y="4.342"/><use xlink:href="#6" y="6.513"/><use xlink:href="#7" y="8.684"/><use xlink:href="#8" y="10.855"/><use xlink:href="#9" y="13.026"/><use xlink:href="#10" y="15.197"/><use xlink:href="#11" y="17.368"/><use xlink:href="#12" y="19.539"/><use xlink:href="#13" y="21.71"/><use xlink:href="#14" y="23.881"/><use xlink:href="#15" y="26.052"/><use xlink:href="#16" y="28.223"/><use xlink:href="#17" y="30.394"/><use xlink:href="#18" y="32.565"/><use xlink:href="#19" y="34.736"/><use xlink:href="#20" y="36.907"/><use xlink:href="#21" y="39.078"/><use xlink:href="#22" y="41.249"/><use xlink:href="#23" y="43.42"/></svg><svg x="3990"><use xlink:href="#a"/><use xlink:href="#b" x="7.996" y="47.737"/><use xlink:href="#1"/><use xlink:href="#4" y="2.171"/><use xlink:href="#5" y="4.342"/><use xlink:href="#6" y="6.513"/><use xlink:href="#7" y="8.684"/><use xlink:href="#8" y="10.855"/><use xlink:href="#9" y="13.026"/><use xlink:href="#10" y="15.197"/><use xlink:href="#11" y="17.368"/><use xlink:href="#12" y="19.539"/><use xlink:href="#13" y="21.71"/><use xlink:href="#14" y="23.881"/><use xlink:href="#15" y="26.052"/><use xlink:href="#16" y="28.223"/><use xlink:href="#17" y="30.394"/><use xlink:href="#18" y="32.565"/><use xlink:href="#19" y="34.736"/><use xlink:href="#20" y="36.907"/><use xlink:href="#21" y="39.078"/><use xlink:href="#22" y="41.249"/><use xlink:href="#23" y="43.42"/><use xlink:href="#24" y="45.591"/><use xlink:href="#25" y="47.762"/></svg><svg x="4085"><use xlink:href="#a"/><use xlink:href="#b" x="8.996" y="47.737"/><use xlink:href="#1"/><use xlink:href="#4" y="2.171"/><use xlink:href="#5" y="4.342"/><use xlink:href="#6" y="6.513"/><use xlink:href="#7" y="8.684"/><use xlink:href="#8" y="10.855"/><use xlink:href="#9" y="13.026"/><use xlink:href="#10" y="15.197"/><use xlink:href="#11" y="17.368"/><use xlink:href="#12" y="19.539"/><use xlink:href="#13" y="21.71"/><use xlink:href="#14" y="23.881"/><use xlink:href="#15" y="26.052"/><use xlink:href="#16" y="28.223"/><use xlink:href="#17" y="30.394"/><use xlink:href="#18" y="32.565"/><use xlink:href="#19" y="34.736"/><use xlink:href="#20" y="36.907"/><use xlink:href="#21" y="39.078"/><use xlink:href="#22" y="41.249"/><use xlink:href="#23" y="43.42"/><use xlink:href="#24" y="45.591"/><text y="49.432" class="i">16:23</text><text x="6.012" y="49.432" class="c">$</text><text x="8.016" y="49.432" class="c">l</text></svg><svg x="4180"><use xlink:href="#a"/><use xlink:href="#b" x="9.996" y="47.737"/><use xlink:href="#1"/><use xlink:href="#4" y="2.171"/><use xlink:href="#5" y="4.342"/><use xlink:href="#6" y="6.513"/><use xlink:href="#7" y="8.684"/><use xlink:href="#8" y="10.855"/><use xlink:href="#9" y="13.026"/><use xlink:href="#10" y="15.197"/><use xlink:href="#11" y="17.368"/><use xlink:href="#12" y="19.539"/><use xlink:href="#13" y="21.71"/><use xlink:href="#14" y="23.881"/><use xlink:href="#15" y="26.052"/><use xlink:href="#16" y="28.223"/><use xlink:href="#17" y="30.394"/><use xlink:href="#18" y="32.565"/><use xlink:href="#19" y="34.736"/><use xlink:href="#20" y="36.907"/><use xlink:href="#21" y="39.078"/><use xlink:href="#22" y="41.249"/><use xlink:href="#23" y="43.42"/><use xlink:href="#24" y="45.591"/><use xlink:href="#26" y="47.762"/></svg><svg x="4275"><use xlink:href="#a"/><use xlink:href="#b" x="10.996" y="47.737"/><use xlink:href="#1"/><use xlink:href="#4" y="2.171"/><use xlink:href="#5" y="4.342"/><use xlink:href="#6" y="6.513"/><use xlink:href="#7" y="8.684"/><use xlink:href="#8" y="10.855"/><use xlink:href="#9" y="13.026"/><use xlink:href="#10" y="15.197"/><use xlink:href="#11" y="17.368"/><use xlink:href="#12" y="19.539"/><use xlink:href="#13" y="21.71"/><use xlink:href="#14" y="23.881"/><use xlink:href="#15" y="26.052"/><use xlink:href="#16" y="28.223"/><use xlink:href="#17" y="30.394"/><use xlink:href="#18" y="32.565"/><use xlink:href="#19" y="34.736"/><use xlink:href="#20" y="36.907"/><use xlink:href="#21" y="39.078"/><use xlink:href="#22" y="41.249"/><use xlink:href="#23" y="43.42"/><use xlink:href="#24" y="45.591"/><use xlink:href="#26" y="47.762"/></svg><svg x="4370"><use xlink:href="#a"/><use xlink:href="#b" x="11.996" y="47.737"/><use xlink:href="#1"/><use xlink:href="#4" y="2.171"/><use xlink:href="#5" y="4.342"/><use xlink:href="#6" y="6.513"/><use xlink:href="#7" y="8.684"/><use xlink:href="#8" y="10.855"/><use xlink:href="#9" y="13.026"/><use xlink:href="#10" y="15.197"/><use xlink:href="#11" y="17.368"/><use xlink:href="#12" y="19.539"/><use xlink:href="#13" y="21.71"/><use xlink:href="#14" y="23.881"/><use xlink:href="#15" y="26.052"/><use xlink:href="#16" y="28.223"/><use xlink:href="#17" y="30.394"/><use xlink:href="#18" y="32.565"/><use xlink:href="#19" y="34.736"/><use xlink:href="#20" y="36.907"/><use xlink:href="#21" y="39.078"/><use xlink:href="#22" y="41.249"/><use xlink:href="#23" y="43.42"/><use xlink:href="#24" y="45.591"/><use xlink:href="#27" y="47.762"/></svg><svg x="4465"><use xlink:href="#a"/><use xlink:href="#b" x="12.996" y="47.737"/><use xlink:href="#1"/><use xlink:href="#4" y="2.171"/><use xlink:href="#5" y="4.342"/><use xlink:href="#6" y="6.513"/><use xlink:href="#7" y="8.684"/><use xlink:href="#8" y="10.855"/><use xlink:href="#9" y="13.026"/><use xlink:href="#10" y="15.197"/><use xlink:href="#11" y="17.368"/><use xlink:href="#12" y="19.539"/><use xlink:href="#13" y="21.71"/><use xlink:href="#14" y="23.881"/><use xlink:href="#15" y="26.052"/><use xlink:href="#16" y="28.223"/><use xlink:href="#17" y="30.394"/><use xlink:href="#18" y="32.565"/><use xlink:href="#19" y="34.736"/><use xlink:href="#20" y="36.907"/><use xlink:href="#21" y="39.078"/><use xlink:href="#22" y="41.249"/><use xlink:href="#23" y="43.42"/><use xlink:href="#24" y="45.591"/><use xlink:href="#28" y="47.762"/></svg><svg x="4560"><use xlink:href="#a"/><use xlink:href="#b" x="16.996" y="47.737"/><use xlink:href="#1"/><use xlink:href="#4" y="2.171"/><use xlink:href="#5" y="4.342"/><use xlink:href="#6" y="6.513"/><use xlink:href="#7" y="8.684"/><use xlink:href="#8" y="10.855"/><use xlink:href="#9" y="13.026"/><use xlink:href="#10" y="15.197"/><use xlink:href="#11" y="17.368"/><use xlink:href="#12" y="19.539"/><use xlink:href="#13" y="21.71"/><use xlink:href="#14" y="23.881"/><use xlink:href="#15" y="26.052"/><use xlink:href="#16" y="28.223"/><use xlink:href="#17" y="30.394"/><use xlink:href="#18" y="32.565"/><use xlink:href="#19" y="34.736"/><use xlink:href="#20" y="36.907"/><use xlink:href="#21" y="39.078"/><use xlink:href="#22" y="41.249"/><use xlink:href="#23" y="43.42"/><use xlink:href="#24" y="45.591"/><text y="49.432" class="i">16:23</text><text x="6.012" y="49.432" class="c">$</text><text x="8.016" y="49.432" class="c">ls</text><text x="11.022" y="49.432" class="c">reads/</text></svg><svg x="4655"><use xlink:href="#a"/><use xlink:href="#b" x="15.996" y="47.737"/><use xlink:href="#1"/><use xlink:href="#4" y="2.171"/><use xlink:href="#5" y="4.342"/><use xlink:href="#6" y="6.513"/><use xlink:href="#7" y="8.684"/><use xlink:href="#8" y="10.855"/><use xlink:href="#9" y="13.026"/><use xlink:href="#10" y="15.197"/><use xlink:href="#11" y="17.368"/><use xlink:href="#12" y="19.539"/><use xlink:href="#13" y="21.71"/><use xlink:href="#14" y="23.881"/><use xlink:href="#15" y="26.052"/><use xlink:href="#16" y="28.223"/><use xlink:href="#17" y="30.394"/><use xlink:href="#18" y="32.565"/><use xlink:href="#19" y="34.736"/><use xlink:href="#20" y="36.907"/><use xlink:href="#21" y="39.078"/><use xlink:href="#22" y="41.249"/><use xlink:href="#23" y="43.42"/><use xlink:href="#24" y="45.591"/><text y="49.432" class="i">16:23</text><text x="6.012" y="49.432" class="c">$</text><text x="8.016" y="49.432" class="c">ls</text><text x="11.022" y="49.432" class="c">reads</text></svg><svg x="4750"><use xlink:href="#a"/><use xlink:href="#b" x="14.996" y="47.737"/><use xlink:href="#1"/><use xlink:href="#4" y="2.171"/><use xlink:href="#5" y="4.342"/><use xlink:href="#6" y="6.513"/><use xlink:href="#7" y="8.684"/><use xlink:href="#8" y="10.855"/><use xlink:href="#9" y="13.026"/><use xlink:href="#10" y="15.197"/><use xlink:href="#11" y="17.368"/><use xlink:href="#12" y="19.539"/><use xlink:href="#13" y="21.71"/><use xlink:href="#14" y="23.881"/><use xlink:href="#15" y="26.052"/><use xlink:href="#16" y="28.223"/><use xlink:href="#17" y="30.394"/><use xlink:href="#18" y="32.565"/><use xlink:href="#19" y="34.736"/><use xlink:href="#20" y="36.907"/><use xlink:href="#21" y="39.078"/><use xlink:href="#22" y="41.249"/><use xlink:href="#23" y="43.42"/><use xlink:href="#24" y="45.591"/><text y="49.432" class="i">16:23</text><text x="6.012" y="49.432" class="c">$</text><text x="8.016" y="49.432" class="c">ls</text><text x="11.022" y="49.432" class="c">read</text></svg><svg x="4845"><use xlink:href="#a"/><use xlink:href="#b" x="13.996" y="47.737"/><use xlink:href="#1"/><use xlink:href="#4" y="2.171"/><use xlink:href="#5" y="4.342"/><use xlink:href="#6" y="6.513"/><use xlink:href="#7" y="8.684"/><use xlink:href="#8" y="10.855"/><use xlink:href="#9" y="13.026"/><use xlink:href="#10" y="15.197"/><use xlink:href="#11" y="17.368"/><use xlink:href="#12" y="19.539"/><use xlink:href="#13" y="21.71"/><use xlink:href="#14" y="23.881"/><use xlink:href="#15" y="26.052"/><use xlink:href="#16" y="28.223"/><use xlink:href="#17" y="30.394"/><use xlink:href="#18" y="32.565"/><use xlink:href="#19" y="34.736"/><use xlink:href="#20" y="36.907"/><use xlink:href="#21" y="39.078"/><use xlink:href="#22" y="41.249"/><use xlink:href="#23" y="43.42"/><use xlink:href="#24" y="45.591"/><text y="49.432" class="i">16:23</text><text x="6.012" y="49.432" class="c">$</text><text x="8.016" y="49.432" class="c">ls</text><text x="11.022" y="49.432" class="c">rea</text></svg><svg x="4940"><use xlink:href="#a"/><use xlink:href="#b" x="12.996" y="47.737"/><use xlink:href="#1"/><use xlink:href="#4" y="2.171"/><use xlink:href="#5" y="4.342"/><use xlink:href="#6" y="6.513"/><use xlink:href="#7" y="8.684"/><use xlink:href="#8" y="10.855"/><use xlink:href="#9" y="13.026"/><use xlink:href="#10" y="15.197"/><use xlink:href="#11" y="17.368"/><use xlink:href="#12" y="19.539"/><use xlink:href="#13" y="21.71"/><use xlink:href="#14" y="23.881"/><use xlink:href="#15" y="26.052"/><use xlink:href="#16" y="28.223"/><use xlink:href="#17" y="30.394"/><use xlink:href="#18" y="32.565"/><use xlink:href="#19" y="34.736"/><use xlink:href="#20" y="36.907"/><use xlink:href="#21" y="39.078"/><use xlink:href="#22" y="41.249"/><use xlink:href="#23" y="43.42"/><use xlink:href="#24" y="45.591"/><use xlink:href="#28" y="47.762"/></svg><svg x="5035"><use xlink:href="#a"/><use xlink:href="#b" x="11.996" y="47.737"/><use xlink:href="#1"/><use xlink:href="#4" y="2.171"/><use xlink:href="#5" y="4.342"/><use xlink:href="#6" y="6.513"/><use xlink:href="#7" y="8.684"/><use xlink:href="#8" y="10.855"/><use xlink:href="#9" y="13.026"/><use xlink:href="#10" y="15.197"/><use xlink:href="#11" y="17.368"/><use xlink:href="#12" y="19.539"/><use xlink:href="#13" y="21.71"/><use xlink:href="#14" y="23.881"/><use xlink:href="#15" y="26.052"/><use xlink:href="#16" y="28.223"/><use xlink:href="#17" y="30.394"/><use xlink:href="#18" y="32.565"/><use xlink:href="#19" y="34.736"/><use xlink:href="#20" y="36.907"/><use xlink:href="#21" y="39.078"/><use xlink:href="#22" y="41.249"/><use xlink:href="#23" y="43.42"/><use xlink:href="#24" y="45.591"/><use xlink:href="#27" y="47.762"/></svg><svg x="5130"><use xlink:href="#a"/><use xlink:href="#b" x="10.996" y="47.737"/><use xlink:href="#1"/><use xlink:href="#4" y="2.171"/><use xlink:href="#5" y="4.342"/><use xlink:href="#6" y="6.513"/><use xlink:href="#7" y="8.684"/><use xlink:href="#8" y="10.855"/><use xlink:href="#9" y="13.026"/><use xlink:href="#10" y="15.197"/><use xlink:href="#11" y="17.368"/><use xlink:href="#12" y="19.539"/><use xlink:href="#13" y="21.71"/><use xlink:href="#14" y="23.881"/><use xlink:href="#15" y="26.052"/><use xlink:href="#16" y="28.223"/><use xlink:href="#17" y="30.394"/><use xlink:href="#18" y="32.565"/><use xlink:href="#19" y="34.736"/><use xlink:href="#20" y="36.907"/><use xlink:href="#21" y="39.078"/><use xlink:href="#22" y="41.249"/><use xlink:href="#23" y="43.42"/><use xlink:href="#24" y="45.591"/><use xlink:href="#26" y="47.762"/></svg><svg x="5225"><use xlink:href="#a"/><use xlink:href="#b" x="11.996" y="47.737"/><use xlink:href="#1"/><use xlink:href="#4" y="2.171"/><use xlink:href="#5" y="4.342"/><use xlink:href="#6" y="6.513"/><use xlink:href="#7" y="8.684"/><use xlink:href="#8" y="10.855"/><use xlink:href="#9" y="13.026"/><use xlink:href="#10" y="15.197"/><use xlink:href="#11" y="17.368"/><use xlink:href="#12" y="19.539"/><use xlink:href="#13" y="21.71"/><use xlink:href="#14" y="23.881"/><use xlink:href="#15" y="26.052"/><use xlink:href="#16" y="28.223"/><use xlink:href="#17" y="30.394"/><use xlink:href="#18" y="32.565"/><use xlink:href="#19" y="34.736"/><use xlink:href="#20" y="36.907"/><use xlink:href="#21" y="39.078"/><use xlink:href="#22" y="41.249"/><use xlink:href="#23" y="43.42"/><use xlink:href="#24" y="45.591"/><text y="49.432" class="i">16:23</text><text x="6.012" y="49.432" class="c">$</text><text x="8.016" y="49.432" class="c">ls</text><text x="11.022" y="49.432" class="c">n</text></svg><svg x="5320"><use xlink:href="#a"/><use xlink:href="#b" x="12.996" y="47.737"/><use xlink:href="#1"/><use xlink:href="#4" y="2.171"/><use xlink:href="#5" y="4.342"/><use xlink:href="#6" y="6.513"/><use xlink:href="#7" y="8.684"/><use xlink:href="#8" y="10.855"/><use xlink:href="#9" y="13.026"/><use xlink:href="#10" y="15.197"/><use xlink:href="#11" y="17.368"/><use xlink:href="#12" y="19.539"/><use xlink:href="#13" y="21.71"/><use xlink:href="#14" y="23.881"/><use xlink:href="#15" y="26.052"/><use xlink:href="#16" y="28.223"/><use xlink:href="#17" y="30.394"/><use xlink:href="#18" y="32.565"/><use xlink:href="#19" y="34.736"/><use xlink:href="#20" y="36.907"/><use xlink:href="#21" y="39.078"/><use xlink:href="#22" y="41.249"/><use xlink:href="#23" y="43.42"/><use xlink:href="#24" y="45.591"/><text y="49.432" class="i">16:23</text><text x="6.012" y="49.432" class="c">$</text><text x="8.016" y="49.432" class="c">ls</text><text x="11.022" y="49.432" class="c">nu</text></svg><svg x="5415"><use xlink:href="#a"/><use xlink:href="#b" x="13.996" y="47.737"/><use xlink:href="#1"/><use xlink:href="#4" y="2.171"/><use xlink:href="#5" y="4.342"/><use xlink:href="#6" y="6.513"/><use xlink:href="#7" y="8.684"/><use xlink:href="#8" y="10.855"/><use xlink:href="#9" y="13.026"/><use xlink:href="#10" y="15.197"/><use xlink:href="#11" y="17.368"/><use xlink:href="#12" y="19.539"/><use xlink:href="#13" y="21.71"/><use xlink:href="#14" y="23.881"/><use xlink:href="#15" y="26.052"/><use xlink:href="#16" y="28.223"/><use xlink:href="#17" y="30.394"/><use xlink:href="#18" y="32.565"/><use xlink:href="#19" y="34.736"/><use xlink:href="#20" y="36.907"/><use xlink:href="#21" y="39.078"/><use xlink:href="#22" y="41.249"/><use xlink:href="#23" y="43.42"/><use xlink:href="#24" y="45.591"/><text y="49.432" class="i">16:23</text><text x="6.012" y="49.432" class="c">$</text><text x="8.016" y="49.432" class="c">ls</text><text x="11.022" y="49.432" class="c">nul</text></svg><svg x="5510"><use xlink:href="#a"/><use xlink:href="#b" x="15.996" y="47.737"/><use xlink:href="#1"/><use xlink:href="#4" y="2.171"/><use xlink:href="#5" y="4.342"/><use xlink:href="#6" y="6.513"/><use xlink:href="#7" y="8.684"/><use xlink:href="#8" y="10.855"/><use xlink:href="#9" y="13.026"/><use xlink:href="#10" y="15.197"/><use xlink:href="#11" y="17.368"/><use xlink:href="#12" y="19.539"/><use xlink:href="#13" y="21.71"/><use xlink:href="#14" y="23.881"/><use xlink:href="#15" y="26.052"/><use xlink:href="#16" y="28.223"/><use xlink:href="#17" y="30.394"/><use xlink:href="#18" y="32.565"/><use xlink:href="#19" y="34.736"/><use xlink:href="#20" y="36.907"/><use xlink:href="#21" y="39.078"/><use xlink:href="#22" y="41.249"/><use xlink:href="#23" y="43.42"/><use xlink:href="#24" y="45.591"/><text y="49.432" class="i">16:23</text><text x="6.012" y="49.432" class="c">$</text><text x="8.016" y="49.432" class="c">ls</text><text x="11.022" y="49.432" class="c">null/</text></svg><svg x="5605"><use xlink:href="#a"/><use xlink:href="#b" x="26.996" y="47.737"/><use xlink:href="#1"/><use xlink:href="#4" y="2.171"/><use xlink:href="#5" y="4.342"/><use xlink:href="#6" y="6.513"/><use xlink:href="#7" y="8.684"/><use xlink:href="#8" y="10.855"/><use xlink:href="#9" y="13.026"/><use xlink:href="#10" y="15.197"/><use xlink:href="#11" y="17.368"/><use xlink:href="#12" y="19.539"/><use xlink:href="#13" y="21.71"/><use xlink:href="#14" y="23.881"/><use xlink:href="#15" y="26.052"/><use xlink:href="#16" y="28.223"/><use xlink:href="#17" y="30.394"/><use xlink:href="#18" y="32.565"/><use xlink:href="#19" y="34.736"/><use xlink:href="#20" y="36.907"/><use xlink:href="#21" y="39.078"/><use xlink:href="#22" y="41.249"/><use xlink:href="#23" y="43.42"/><use xlink:href="#24" y="45.591"/><use xlink:href="#29" y="47.762"/></svg><svg x="5700"><use xlink:href="#a"/><use xlink:href="#b" x="-.004" y="49.908"/><use xlink:href="#1"/><use xlink:href="#4" y="2.171"/><use xlink:href="#5" y="4.342"/><use xlink:href="#6" y="6.513"/><use xlink:href="#7" y="8.684"/><use xlink:href="#8" y="10.855"/><use xlink:href="#9" y="13.026"/><use xlink:href="#10" y="15.197"/><use xlink:href="#11" y="17.368"/><use xlink:href="#12" y="19.539"/><use xlink:href="#13" y="21.71"/><use xlink:href="#14" y="23.881"/><use xlink:href="#15" y="26.052"/><use xlink:href="#16" y="28.223"/><use xlink:href="#17" y="30.394"/><use xlink:href="#18" y="32.565"/><use xlink:href="#19" y="34.736"/><use xlink:href="#20" y="36.907"/><use xlink:href="#21" y="39.078"/><use xlink:href="#22" y="41.249"/><use xlink:href="#23" y="43.42"/><use xlink:href="#24" y="45.591"/><use xlink:href="#29" y="47.762"/></svg><svg x="5795"><use xlink:href="#a"/><use xlink:href="#b" x="-.004" y="52.079"/><use xlink:href="#4"/><use xlink:href="#5" y="2.171"/><use xlink:href="#6" y="4.342"/><use xlink:href="#7" y="6.513"/><use xlink:href="#8" y="8.684"/><use xlink:href="#9" y="10.855"/><use xlink:href="#10" y="13.026"/><use xlink:href="#11" y="15.197"/><use xlink:href="#12" y="17.368"/><use xlink:href="#13" y="19.539"/><use xlink:href="#14" y="21.71"/><use xlink:href="#15" y="23.881"/><use xlink:href="#16" y="26.052"/><use xlink:href="#17" y="28.223"/><use xlink:href="#18" y="30.394"/><use xlink:href="#19" y="32.565"/><use xlink:href="#20" y="34.736"/><use xlink:href="#21" y="36.907"/><use xlink:href="#22" y="39.078"/><use xlink:href="#23" y="41.249"/><use xlink:href="#24" y="43.42"/><use xlink:href="#29" y="45.591"/><use xlink:href="#30" y="47.762"/><use xlink:href="#31" y="49.933"/></svg><svg x="5890"><use xlink:href="#a"/><use xlink:href="#b" x="7.996" y="52.079"/><use xlink:href="#5"/><use xlink:href="#6" y="2.171"/><use xlink:href="#7" y="4.342"/><use xlink:href="#8" y="6.513"/><use xlink:href="#9" y="8.684"/><use xlink:href="#10" y="10.855"/><use xlink:href="#11" y="13.026"/><use xlink:href="#12" y="15.197"/><use xlink:href="#13" y="17.368"/><use xlink:href="#14" y="19.539"/><use xlink:href="#15" y="21.71"/><use xlink:href="#16" y="23.881"/><use xlink:href="#17" y="26.052"/><use xlink:href="#18" y="28.223"/><use xlink:href="#19" y="30.394"/><use xlink:href="#20" y="32.565"/><use xlink:href="#21" y="34.736"/><use xlink:href="#22" y="36.907"/><use xlink:href="#23" y="39.078"/><use xlink:href="#24" y="41.249"/><use xlink:href="#29" y="43.42"/><use xlink:href="#30" y="45.591"/><use xlink:href="#31" y="47.762"/><use xlink:href="#24" y="49.933"/><use xlink:href="#25" y="52.104"/></svg><svg x="5985"><use xlink:href="#a"/><use xlink:href="#b" x="-.004" y="52.079"/><use xlink:href="#6"/><use xlink:href="#7" y="2.171"/><use xlink:href="#8" y="4.342"/><use xlink:href="#9" y="6.513"/><use xlink:href="#10" y="8.684"/><use xlink:href="#11" y="10.855"/><use xlink:href="#12" y="13.026"/><use xlink:href="#13" y="15.197"/><use xlink:href="#14" y="17.368"/><use xlink:href="#15" y="19.539"/><use xlink:href="#16" y="21.71"/><use xlink:href="#17" y="23.881"/><use xlink:href="#18" y="26.052"/><use xlink:href="#19" y="28.223"/><use xlink:href="#20" y="30.394"/><use xlink:href="#21" y="32.565"/><use xlink:href="#22" y="34.736"/><use xlink:href="#23" y="36.907"/><use xlink:href="#24" y="39.078"/><use xlink:href="#29" y="41.249"/><use xlink:href="#30" y="43.42"/><use xlink:href="#31" y="45.591"/><use xlink:href="#24" y="47.762"/><text y="51.603" class="i">16:23</text><text x="6.012" y="51.603" class="c">$</text><text x="8.016" y="51.603" class="c">exit</text></svg></svg></g></g></svg></svg>