<?xml version="1.0" encoding="UTF-8" standalone="no"?>
<!DOCTYPE svg PUBLIC "-//W3C//DTD SVG 1.1//EN"
 "http://www.w3.org/Graphics/SVG/1.1/DTD/svg11.dtd">
<!-- Generated by graphviz version 2.38.0 (20140413.2041)
 -->
<!-- Title: subsamplenf Pages: 1 -->
<svg width="232pt" height="172pt"
 viewBox="0.00 0.00 231.60 171.80" xmlns="http://www.w3.org/2000/svg" xmlns:xlink="http://www.w3.org/1999/xlink">
<g id="graph0" class="graph" transform="scale(1 1) rotate(0) translate(4 167.8)">
<title>subsamplenf</title>
<polygon fill="white" stroke="none" points="-4,4 -4,-167.8 227.6,-167.8 227.6,4 -4,4"/>
<!-- p0 -->
<g id="node1" class="node"><title>p0</title>
<ellipse fill="black" stroke="black" cx="103.6" cy="-145.2" rx="3.6" ry="3.6"/>
<text text-anchor="middle" x="50" y="-152.6" font-family="Times,serif" font-size="14.00">Channel.fromPath</text>
</g>
<!-- p1 -->
<g id="node2" class="node"><title>p1</title>
<ellipse fill="none" stroke="black" cx="103.6" cy="-72.6" rx="48.1917" ry="18"/>
<text text-anchor="middle" x="103.6" y="-68.9" font-family="Times,serif" font-size="14.00">subsample</text>
</g>
<!-- p0&#45;&gt;p1 -->
<g id="edge1" class="edge"><title>p0&#45;&gt;p1</title>
<path fill="none" stroke="black" d="M103.6,-141.519C103.6,-134.847 103.6,-116.901 103.6,-101.131"/>
<polygon fill="black" stroke="black" points="107.1,-100.727 103.6,-90.7269 100.1,-100.727 107.1,-100.727"/>
<text text-anchor="middle" x="128.1" y="-112.4" font-family="Times,serif" font-size="14.00">ch_reads</text>
</g>
<!-- p2 -->
<g id="node3" class="node"><title>p2</title>
<ellipse fill="black" stroke="black" cx="103.6" cy="-1.8" rx="1.8" ry="1.8"/>
</g>
<!-- p1&#45;&gt;p2 -->
<g id="edge2" class="edge"><title>p1&#45;&gt;p2</title>
<path fill="none" stroke="black" d="M103.6,-54.5933C103.6,-42.0587 103.6,-25.3431 103.6,-14.3356"/>
<polygon fill="black" stroke="black" points="107.1,-14.1898 103.6,-4.18985 100.1,-14.1899 107.1,-14.1898"/>
<text text-anchor="middle" x="163.6" y="-25.4" font-family="Times,serif" font-size="14.00">ch_subsampled_reads</text>
</g>
</g>
</svg>
